<svg width="500" height="500" viewBox="0 0 500 500" fill="none" xmlns="http://www.w3.org/2000/svg">
<path d="M72.5894 297.06L59.4694 297.33L52.8094 297.45C50.5794 297.45 48.3394 297.45 46.1094 297.5H45.6694V297.05L45.6094 285.86V285.35H46.1094L59.3494 285.41C63.7694 285.41 68.1794 285.52 72.5894 285.57H72.8694V285.84C72.8694 287.74 72.7794 289.62 72.7394 291.49L72.5894 297.06ZM72.5894 297.06L72.4494 291.4C72.4494 289.54 72.3394 287.7 72.3194 285.87L72.5894 286.14C68.1794 286.19 63.7694 286.3 59.3494 286.3L46.1094 286.37L46.6094 285.87V297.06L46.1594 296.61C48.3394 296.61 50.5194 296.61 52.7094 296.67L59.2894 296.78L72.5894 297.06Z" fill="#EBE6E1"/>
<path d="M57.8198 311.169L44.6998 311.439L38.0398 311.559C35.8098 311.559 33.5698 311.559 31.3398 311.609H30.8998V311.159L30.8398 299.999V299.489H31.3398L44.5798 299.549C48.9898 299.549 53.4098 299.659 57.8198 299.709H58.0998V299.999C58.0998 301.899 58.0198 303.779 57.9698 305.649L57.8198 311.169ZM57.8198 311.169L57.6798 305.509C57.6798 303.649 57.5698 301.809 57.5498 299.979L57.8198 300.249C53.4098 300.299 48.9898 300.409 44.5798 300.409L31.3398 300.479L31.8398 299.979L31.7898 311.169L31.3398 310.719C33.5198 310.719 35.6998 310.719 37.8898 310.779L44.4698 310.889L57.8198 311.169Z" fill="#EBE6E1"/>
<path d="M293.169 148.879L280.049 149.159L273.389 149.269C271.159 149.269 268.919 149.269 266.689 149.329H266.249V148.879L266.189 137.689V137.189H266.689L279.929 137.259C284.349 137.259 288.759 137.369 293.169 137.419H293.449V137.689C293.449 139.589 293.359 141.479 293.309 143.349L293.169 148.879ZM293.169 148.879L293.029 143.229C293.029 141.369 292.919 139.519 292.899 137.689L293.169 137.969C288.759 138.019 284.349 138.119 279.929 138.129L266.689 138.189L267.189 137.689L267.139 148.879L266.689 148.439C268.869 148.439 271.049 148.439 273.239 148.489L279.819 148.599L293.169 148.879Z" fill="#EBE6E1"/>
<path d="M278.4 163L265.28 163.28L258.62 163.39C256.39 163.44 254.15 163.39 251.92 163.45H251.48V163L251.42 151.81V151.31H251.92L265.16 151.38C269.57 151.38 273.99 151.49 278.4 151.54H278.68V151.81C278.68 153.71 278.6 155.6 278.55 157.47L278.4 163ZM278.4 163L278.26 157.35C278.21 155.49 278.15 153.64 278.13 151.81L278.4 152.09C273.99 152.09 269.57 152.24 265.16 152.25L251.92 152.31L252.42 151.81V163L251.97 162.56C254.15 162.56 256.33 162.56 258.52 162.56L265.1 162.67L278.4 163Z" fill="#EBE6E1"/>
<path d="M263.69 148.879L250.56 149.159L243.9 149.269C241.68 149.269 239.44 149.269 237.21 149.329H236.76V148.879V137.689V137.189H237.26L250.5 137.259C254.91 137.259 259.32 137.369 263.74 137.419H264V137.689C264 139.589 263.91 141.479 263.87 143.349L263.69 148.879ZM263.69 148.879L263.55 143.229C263.5 141.369 263.43 139.519 263.41 137.689L263.69 137.969C259.27 138.019 254.86 138.119 250.45 138.129L237.21 138.189L237.71 137.689L237.65 148.879L237.21 148.439C239.39 148.439 241.56 148.439 243.75 148.489L250.33 148.599L263.69 148.879Z" fill="#EBE6E1"/>
<path d="M468.66 311.169L455.53 311.439L448.87 311.559C446.65 311.559 444.41 311.559 442.18 311.609H441.73V311.159L441.68 299.999V299.489H442.18L455.42 299.549C459.83 299.549 464.25 299.659 468.66 299.709H468.93V299.999C468.93 301.899 468.85 303.779 468.8 305.649L468.66 311.169ZM468.66 311.169L468.52 305.509C468.52 303.649 468.4 301.809 468.39 299.979L468.66 300.249C464.25 300.299 459.83 300.409 455.42 300.409L442.18 300.479L442.68 299.979L442.62 311.169L442.18 310.719C444.36 310.719 446.54 310.719 448.72 310.779L455.3 310.889L468.66 311.169Z" fill="#EBE6E1"/>
<path d="M453.89 58.0596L440.76 58.3296L434.1 58.4496C431.88 58.4496 429.64 58.4496 427.41 58.4496H427V58.0096V46.8196V46.3096H427.51L440.75 46.3696C445.16 46.3696 449.57 46.4796 453.99 46.5296H454.26V46.7996C454.26 48.6896 454.17 50.5796 454.13 52.4496L453.89 58.0596ZM453.89 58.0596L453.75 52.3996C453.7 50.5396 453.63 48.6996 453.61 46.8696L453.89 47.1396C449.47 47.1396 445.06 47.2996 440.65 47.2996L427.41 47.3596L427.91 46.8696L427.85 58.0596L427.41 57.6096C429.59 57.6096 431.76 57.6096 433.95 57.6096L440.53 57.7296L453.89 58.0596Z" fill="#EBE6E1"/>
<path d="M468.66 72.1693L455.53 72.4393L448.87 72.5593C446.65 72.5593 444.41 72.5593 442.18 72.5593H441.73V72.1093L441.68 60.9993V60.4893H442.18L455.42 60.5493C459.83 60.5493 464.25 60.6593 468.66 60.7093H468.93V60.9993C468.93 62.8893 468.85 64.7793 468.8 66.6493L468.66 72.1693ZM468.66 72.1693L468.52 66.5093C468.52 64.6493 468.4 62.8093 468.39 60.9793L468.66 61.2493C464.25 61.2493 459.83 61.4093 455.42 61.4093L442.18 61.4693L442.68 60.9793L442.62 72.1593L442.18 71.7193C444.36 71.7193 446.54 71.7193 448.72 71.7193L455.3 71.8393L468.66 72.1693Z" fill="#EBE6E1"/>
<path d="M72.5894 58.0596L59.4694 58.3296L52.8094 58.4496C50.5794 58.4496 48.3394 58.4496 46.1094 58.4496H45.6694V58.0096L45.6094 46.8196V46.3096H46.1094L59.3494 46.3696C63.7694 46.3696 68.1794 46.4796 72.5894 46.5296H72.8694V46.7996C72.8694 48.6896 72.7794 50.5796 72.7394 52.4496L72.5894 58.0596ZM72.5894 58.0596L72.4494 52.3996C72.4494 50.5396 72.3394 48.6996 72.3194 46.8696L72.5894 47.1396C68.1794 47.1396 63.7694 47.2996 59.3494 47.2996L46.1094 47.3596L46.6094 46.8696V58.0596L46.1594 57.6096C48.3394 57.6096 50.5194 57.6096 52.7094 57.6096L59.2894 57.7296L72.5894 58.0596Z" fill="#EBE6E1"/>
<path d="M41.2095 302.77H278.59L283.52 205.37H36.2695L41.2095 302.77Z" fill="#EBE6E1"/>
<path d="M267.34 250H168.1L166.24 216.18H269.51L267.34 250ZM169.23 248.8H266.23L268.23 217.38H167.5L169.23 248.8Z" fill="#403128"/>
<path d="M265.51 288.86H171.999L170.479 258.34H267.48L265.51 288.86ZM173.119 287.66H264.38L266.14 259.53H171.719L173.119 287.66Z" fill="#403128"/>
<path d="M227.27 236.72H210.6L209.6 228.56H228.37L227.27 236.72ZM211.65 235.52H226.22L226.96 229.76H210.91L211.65 235.52Z" fill="#403128"/>
<path d="M227.27 277.67H210.6L209.6 269.52H228.37L227.27 277.67ZM211.65 276.48H226.22L226.96 270.72H210.91L211.65 276.48Z" fill="#403128"/>
<path d="M150.61 250H51.37L49.5 216.14H152.78L150.61 250ZM52.5 248.8H149.5L151.5 217.38H50.77L52.5 248.8Z" fill="#403128"/>
<path d="M148.77 288.86H55.2495L53.7295 258.34H150.729L148.77 288.86ZM56.3895 287.66H147.649L149.41 259.53H54.9995L56.3895 287.66Z" fill="#403128"/>
<path d="M110.54 236.72H93.8696L92.8096 228.56H111.59L110.54 236.72ZM94.9196 235.52H109.49L110.23 229.76H94.2296L94.9196 235.52Z" fill="#403128"/>
<path d="M110.54 277.67H93.8696L92.8096 269.52H111.59L110.54 277.67ZM94.9196 276.48H109.49L110.23 270.72H94.2296L94.9196 276.48Z" fill="#403128"/>
<path d="M62.4994 302.77L61.0094 313.38L58.0094 334.7H52.1494V302.77H62.4994Z" fill="#EBE6E1"/>
<path d="M62.4994 302.77L61.0094 313.38H52.1494V302.77H62.4994Z" fill="#403128"/>
<path d="M257.3 302.77L258.79 313.38L261.79 334.7H267.65V302.77H257.3Z" fill="#EBE6E1"/>
<path d="M257.3 302.77L258.79 313.38H267.65V302.77H257.3Z" fill="#403128"/>
<path d="M124.29 205.33V133.52H106.21V205.33H124.29Z" fill="#EBE6E1"/>
<path d="M124.29 137.57V129.68H106.21V137.57H124.29Z" fill="#403128"/>
<path d="M124.29 150.61V147.68H106.21V150.61H124.29Z" fill="#403128"/>
<path d="M124.29 195.91V188.02H106.21V195.91H124.29Z" fill="#403128"/>
<path d="M136.93 205.33V121.56H124.29V205.33H136.93Z" fill="#403128"/>
<path d="M134.35 161.65V129.43H126.77V161.65H134.35Z" fill="#EBE6E1"/>
<path d="M226.947 196.244L167.372 137.352L158.486 146.341L218.06 205.233L226.947 196.244Z" fill="#EBE6E1"/>
<path d="M211.207 184.195L188.293 161.544L182.964 166.935L205.878 189.586L211.207 184.195Z" fill="#403128"/>
<path d="M158.39 205.34V141.71H136.93V205.34H158.39Z" fill="#4F4F4F"/>
<path d="M158.39 198.59V192.66H136.93V198.59H158.39Z" fill="#EBE6E1"/>
<path d="M158.39 188.779V186.479H136.93V188.779H158.39Z" fill="#EBE6E1"/>
<path d="M82.7319 205.394L106.318 150.442L92.6906 144.593L69.1041 199.545L82.7319 205.394Z" fill="#4F4F4F"/>
<path d="M85.2308 199.548L87.4277 194.43L73.8 188.58L71.6031 193.699L85.2308 199.548Z" fill="#EBE6E1"/>
<path d="M99.2679 166.881L101.465 161.763L87.8371 155.913L85.6402 161.032L99.2679 166.881Z" fill="#EBE6E1"/>
<path d="M97.1381 173.19L97.9805 171.203L84.3369 165.419L83.4945 167.407L97.1381 173.19Z" fill="#EBE6E1"/>
<path d="M295.89 42.7197V190H442.31V42.7197H295.89ZM438.45 186.09H299.75V46.5797H438.45V186.09Z" fill="#EBE6E1"/>
<path d="M438.45 46.5801V186.09H372.53V47.5901H368.68V186.09H299.75V46.5801H438.45Z" fill="white"/>
<path d="M372.53 47.5898H368.68V188.02H372.53V47.5898Z" fill="#EBE6E1"/>
<path d="M292.39 55.8994L445.81 55.8994V50.5194L292.39 50.5194V55.8994Z" fill="#EBE6E1"/>
<path d="M292.39 61.9502L445.81 61.9502V56.5702L292.39 56.5702V61.9502Z" fill="#EBE6E1"/>
<path d="M292.39 68L445.81 68V62.62L292.39 62.62V68Z" fill="#EBE6E1"/>
<path d="M292.39 74.04L445.81 74.04V68.66L292.39 68.66V74.04Z" fill="#EBE6E1"/>
<path d="M292.39 80.0898L445.81 80.0898V74.7098L292.39 74.7098V80.0898Z" fill="#EBE6E1"/>
<path d="M292.39 86.1396L445.81 86.1396V80.7596L292.39 80.7596V86.1396Z" fill="#EBE6E1"/>
<path d="M292.39 92.1895L445.81 92.1895V86.8094L292.39 86.8094V92.1895Z" fill="#EBE6E1"/>
<path d="M292.39 98.2393L445.81 98.2393V92.8593L292.39 92.8593V98.2393Z" fill="#EBE6E1"/>
<path d="M292.39 104.29L445.81 104.29V98.91L292.39 98.91V104.29Z" fill="#EBE6E1"/>
<path d="M304.829 49.4297H303.859V129.22H304.829V49.4297Z" fill="black"/>
<path d="M302.62 133.72H306.05L305.19 128.79H303.48L302.62 133.72Z" fill="black"/>
<path d="M301.35 49.4297H300.38V184.57H301.35V49.4297Z" fill="black"/>
<path d="M299.149 188.19H302.569L301.709 183.27H300.009L299.149 188.19Z" fill="black"/>
<path d="M286.4 53.2197L451.8 53.2197V41.9697L286.4 41.9697V53.2197Z" fill="#403128"/>
<path d="M250 459.22C322.316 459.22 380.94 448.265 380.94 434.75C380.94 421.236 322.316 410.28 250 410.28C177.683 410.28 119.06 421.236 119.06 434.75C119.06 448.265 177.683 459.22 250 459.22Z" fill="#EBE6E1"/>
<path d="M30.6201 334.7L85.4701 334.46L140.31 334.37L250 334.2L359.69 334.37L414.53 334.46L469.38 334.7L414.53 334.95L359.69 335.04L250 335.2L140.31 335.03L85.4701 334.95L30.6201 334.7Z" fill="black"/>
<path d="M441.5 201C436.9 196.49 430.95 191 423.92 193C417.3 194.82 414.77 202.05 413.58 208.07C412.06 215.82 410.87 223.66 409.64 231.46C408.41 239.26 407.22 247.25 406.09 255.15C405.423 259.61 404.79 264.07 404.19 268.53L403.26 275.22C402.96 277.41 402.59 279.6 402.47 281.81C402.47 282.51 403.54 282.61 403.69 281.94C404.54 278.22 404.89 274.35 405.44 270.57C405.99 266.79 406.54 262.98 407.1 259.18C408.2 251.64 409.326 244.1 410.48 236.56C411.633 229.02 412.806 221.476 414 213.93C415 207.54 415.51 199.6 421.17 195.39C424.27 193.08 428.24 193.05 431.76 194.39C435.48 195.81 438.46 198.48 441.38 201.12C441.46 201.21 441.59 201.07 441.5 201Z" fill="black"/>
<path d="M435.2 196.38C435.2 196.38 425.8 193 421.2 199.86C416.6 206.72 422.1 224.18 464.92 234.03C463.664 220.644 460.182 207.561 454.62 195.32C445.4 175.3 429.05 182.88 435.2 196.38Z" fill="#403128"/>
<path d="M462.42 231.17C461.772 229.972 461.054 228.813 460.27 227.7C459.55 226.6 458.83 225.5 458.1 224.4C457.55 223.58 456.99 222.77 456.42 221.95C456.42 221.75 456.47 221.55 456.5 221.34L456.65 220.23C456.75 219.43 456.87 218.62 456.99 217.82C457.11 217.02 457.24 216.23 457.39 215.43C457.495 214.574 457.682 213.73 457.95 212.91C458.01 212.79 457.78 212.72 457.77 212.91C457.675 213.392 457.545 213.867 457.38 214.33C457.28 214.69 457.19 215.05 457.1 215.41C456.89 216.22 456.69 217.04 456.51 217.86C456.33 218.68 456.2 219.37 456.07 220.13C456 220.5 455.95 220.86 455.9 221.23C455.14 220.14 454.36 219.06 453.56 218C451.28 215 448.88 212.13 446.39 209.31C446.39 209.31 446.39 209.31 446.39 209.24C446.61 204.74 446.5 200.24 447.5 195.86C447.5 195.74 447.35 195.67 447.32 195.79C446.38 199.94 445.45 204.3 445.72 208.59C444.83 207.59 443.92 206.59 443.01 205.59C440.917 203.35 438.79 201.146 436.63 198.98C436.54 198.9 436.4 198.98 436.49 199.11C440.1 203 443.49 207.04 446.86 211.16C444.247 211.121 441.633 211.218 439.03 211.45C436.13 211.67 433.25 212.04 430.36 212.45C430.24 212.45 430.28 212.66 430.36 212.64C433.231 212.225 436.121 211.965 439.02 211.86C441.81 211.75 444.59 211.86 447.38 211.86C449.18 214.1 450.963 216.353 452.73 218.62H452.33C451.67 218.62 451.02 218.62 450.33 218.62C449.03 218.62 447.73 218.74 446.43 218.85C443.77 219.068 441.128 219.462 438.52 220.03C438.5 220.036 438.482 220.049 438.47 220.066C438.458 220.083 438.451 220.104 438.451 220.125C438.451 220.146 438.458 220.166 438.47 220.183C438.482 220.201 438.5 220.213 438.52 220.22C441.15 219.92 443.79 219.68 446.43 219.59C447.7 219.54 448.96 219.54 450.22 219.54C450.88 219.54 451.53 219.54 452.22 219.54C452.583 219.585 452.951 219.551 453.3 219.44C454.45 220.93 455.61 222.44 456.75 223.93C457.66 225.13 458.55 226.33 459.43 227.55C460.31 228.77 461.15 230.15 462.15 231.31C462.34 231.37 462.47 231.27 462.42 231.17Z" fill="black"/>
<path d="M439.3 206.11C437.782 205.913 436.251 205.836 434.72 205.88C433.19 205.88 431.66 205.93 430.13 205.98C430.115 205.975 430.099 205.974 430.084 205.976C430.068 205.979 430.053 205.985 430.04 205.994C430.028 206.003 430.017 206.015 430.01 206.03C430.003 206.044 429.999 206.059 429.999 206.075C429.999 206.091 430.003 206.106 430.01 206.12C430.017 206.135 430.028 206.147 430.04 206.156C430.053 206.165 430.068 206.171 430.084 206.174C430.099 206.176 430.115 206.175 430.13 206.17C431.68 206.06 433.22 206.04 434.78 206.06C436.34 206.08 437.78 206.22 439.27 206.18C439.34 206.18 439.35 206.12 439.3 206.11Z" fill="black"/>
<path d="M452.74 209.56C452.91 208.1 453.1 206.63 453.41 205.19C453.415 205.175 453.416 205.159 453.413 205.143C453.411 205.128 453.405 205.113 453.396 205.1C453.386 205.087 453.374 205.077 453.36 205.07C453.346 205.062 453.33 205.059 453.315 205.059C453.299 205.059 453.283 205.062 453.269 205.07C453.255 205.077 453.243 205.087 453.234 205.1C453.224 205.113 453.218 205.128 453.216 205.143C453.213 205.159 453.215 205.175 453.22 205.19C453 206.63 452.72 208.06 452.51 209.5C452.4 210.22 452.3 210.94 452.22 211.66C452.093 212.319 452.033 212.989 452.04 213.66C452.047 213.687 452.064 213.711 452.086 213.728C452.109 213.745 452.136 213.754 452.165 213.754C452.193 213.754 452.22 213.745 452.243 213.728C452.265 213.711 452.282 213.687 452.29 213.66C452.421 213.001 452.495 212.332 452.51 211.66C452.58 211 452.66 210.25 452.74 209.56Z" fill="black"/>
<path d="M449.92 193.35C449.55 194.78 449.18 196.22 448.92 197.67C448.79 198.4 448.68 199.14 448.58 199.88C448.441 200.591 448.39 201.316 448.43 202.04C448.43 202.056 448.436 202.071 448.448 202.082C448.459 202.094 448.474 202.1 448.49 202.1C448.506 202.1 448.521 202.094 448.533 202.082C448.544 202.071 448.55 202.056 448.55 202.04C448.715 201.363 448.826 200.674 448.88 199.98C448.98 199.273 449.09 198.563 449.21 197.85C449.47 196.36 449.74 194.85 450.11 193.41C450.13 193.3 450 193.23 449.92 193.35Z" fill="black"/>
<path d="M394.16 280.2C393.93 277.51 393.66 274.81 393.38 272.12C392.82 266.79 392.16 261.47 391.45 256.12C390.74 250.77 390.05 245.51 389.2 240.23C388.883 237.778 388.337 235.36 387.57 233.01C387.292 232.002 386.787 231.072 386.094 230.29C385.401 229.509 384.537 228.896 383.57 228.5C378.57 226.76 375.14 231.99 373.1 235.68C373.092 235.702 373.092 235.726 373.099 235.749C373.107 235.771 373.123 235.79 373.143 235.802C373.163 235.814 373.187 235.818 373.211 235.814C373.234 235.81 373.255 235.798 373.27 235.78C374.49 234.03 377.86 229.11 381.68 229.34C384.25 229.49 386.31 231.34 387.54 237.73C390.62 253.73 393.39 286.13 393.71 288.25C393.88 289.37 394.71 289.33 394.71 288.12C394.7 285.5 394.39 282.84 394.16 280.2Z" fill="black"/>
<path d="M374.46 233.73C374.46 233.73 378.86 218.18 369.13 225.95C352.92 238.89 352.35 267.05 352.35 267.05C352.35 267.05 381.15 250.31 384.74 239.28C390.07 222.84 374.46 233.73 374.46 233.73Z" fill="#403128"/>
<path d="M379.91 241.36C377.65 241.82 375.36 242.12 373.08 242.44L369.83 242.9C369.1 243 368.37 243.07 367.63 243.16C369.78 240.16 371.94 237.26 374 234.24C374.08 234.13 373.9 234.01 373.8 234.1C372.096 235.864 370.491 237.72 368.99 239.66C368.57 238.45 368.14 237.25 367.71 236.05C367.22 234.66 366.71 233.27 366.34 231.84C366.34 231.816 366.33 231.793 366.313 231.776C366.297 231.759 366.274 231.75 366.25 231.75C366.226 231.75 366.203 231.759 366.186 231.776C366.169 231.793 366.16 231.816 366.16 231.84C366.55 233.27 366.83 234.72 367.16 236.15C367.49 237.58 367.95 238.89 368.44 240.24C367.38 241.61 366.37 243.01 365.39 244.43C364.89 243.02 364.28 241.66 363.84 240.24C363.833 240.216 363.817 240.196 363.796 240.184C363.774 240.171 363.749 240.168 363.725 240.175C363.701 240.182 363.681 240.197 363.669 240.219C363.656 240.241 363.653 240.266 363.66 240.29C364.17 241.87 364.45 243.51 364.94 245.1C364.28 246.1 363.61 247.03 362.94 248.01C361.78 249.8 360.68 251.63 359.61 253.48C359.528 253.516 359.459 253.577 359.414 253.654C359.369 253.731 359.35 253.821 359.36 253.91C357.54 257.06 355.81 260.25 354.1 263.48C354.095 263.501 354.098 263.523 354.107 263.543C354.116 263.563 354.132 263.579 354.151 263.589C354.17 263.599 354.192 263.603 354.214 263.6C354.235 263.596 354.255 263.586 354.27 263.57C355.98 260.39 357.88 257.29 359.86 254.24C360.166 254.147 360.481 254.086 360.8 254.06L361.8 253.84C362.54 253.68 363.28 253.49 364.02 253.3C365.48 252.94 366.93 252.6 368.41 252.3C368.53 252.3 368.48 252.09 368.35 252.12C366.61 252.45 364.86 252.65 363.1 252.85C362.27 252.95 361.44 253.05 360.61 253.18H360.49C361.49 251.61 362.57 250.05 363.64 248.5C364.71 246.95 365.76 245.5 366.84 243.99C367.84 243.85 368.84 243.59 369.84 243.4L373.19 242.75C375.42 242.3 377.64 241.75 379.88 241.43C380.09 241.52 380 241.33 379.91 241.36Z" fill="black"/>
<path d="M362.6 242.89L362.21 241.65C361.944 240.796 361.724 239.928 361.55 239.05C361.55 238.93 361.34 238.98 361.37 239.05C361.55 239.93 361.76 240.81 361.96 241.68C362.144 242.561 362.395 243.427 362.71 244.27C362.723 244.314 362.753 244.35 362.794 244.372C362.834 244.394 362.881 244.398 362.925 244.385C362.969 244.372 363.006 244.342 363.027 244.301C363.049 244.261 363.053 244.214 363.04 244.17C362.92 243.77 362.74 243.33 362.6 242.89Z" fill="black"/>
<path d="M382.86 237.76C381.55 237.96 380.22 238.05 378.86 238.16C377.5 238.27 376.22 238.46 374.86 238.66C374.79 238.66 374.79 238.78 374.86 238.78C376.19 238.69 377.5 238.58 378.86 238.41C380.22 238.24 381.5 238.04 382.86 237.95C383 237.94 383 237.74 382.86 237.76Z" fill="black"/>
<path d="M415.359 260.52C414.849 249.07 414.119 237.64 412.969 226.24C412.399 220.56 411.759 214.88 410.969 209.24C410.252 203.685 409.157 198.185 407.689 192.78C406.509 188.66 404.959 184.53 402.209 181.18C400.926 179.501 399.237 178.176 397.3 177.331C395.363 176.486 393.243 176.148 391.139 176.35C386.139 176.97 382.089 180.12 378.599 183.55C374.689 187.4 371.099 191.6 367.479 195.72C366.559 196.72 365.649 197.81 364.749 198.86C364.669 198.95 364.809 199.09 364.889 198.99C368.429 194.92 372.119 190.99 375.969 187.18C379.529 183.68 383.199 179.86 388.139 178.42C390.427 177.684 392.879 177.625 395.199 178.25C397.034 178.838 398.687 179.889 399.999 181.3C402.779 184.19 404.339 188.1 405.449 191.89C408.529 202.41 409.629 213.44 410.769 224.31C411.929 235.31 412.719 246.42 413.269 257.51C413.819 268.6 414.269 279.82 415.339 290.93C415.469 292.3 415.649 293.67 415.819 295.03C415.939 295.95 417.369 295.95 417.289 295.03C416.399 283.51 415.869 272 415.359 260.52Z" fill="black"/>
<path d="M378 184.78C378 184.78 384.53 172.68 376.81 168.78C369.09 164.88 343.23 193.78 335.67 235.96C335.67 235.96 377.43 217.49 391.61 199.08C405.79 180.67 389.69 176.63 378 184.78Z" fill="#403128"/>
<path d="M384.099 194.62C379.409 194.62 374.729 194.27 370.039 194.3C370.909 193.3 371.789 192.3 372.679 191.3C373.993 189.961 375.219 188.538 376.349 187.04C376.409 186.94 376.269 186.8 376.179 186.88C374.908 187.975 373.721 189.165 372.629 190.44C371.449 191.694 370.279 192.947 369.119 194.2C367.319 196.14 365.569 198.11 363.809 200.09V197.09C363.809 195.49 363.809 193.9 363.859 192.31C363.859 189.08 363.859 185.84 364.109 182.62C364.109 182.5 363.919 182.5 363.909 182.62C363.689 185.85 363.359 189.07 363.199 192.32C363.119 193.91 363.079 195.5 363.059 197.09C363.059 197.92 363.059 198.74 363.059 199.56C363.059 200.01 363.059 200.48 363.059 200.94C362.789 201.25 362.509 201.55 362.229 201.86C358.489 206.14 354.929 210.57 351.459 215.07C351.459 214.83 351.459 214.57 351.399 214.33C351.399 213.83 351.289 213.33 351.239 212.84C351.109 211.76 350.969 210.69 350.809 209.62C350.649 208.55 350.499 207.62 350.329 206.62C350.159 205.62 349.859 204.35 349.769 203.21C349.769 203.186 349.76 203.164 349.743 203.147C349.726 203.13 349.703 203.12 349.679 203.12C349.656 203.12 349.633 203.13 349.616 203.147C349.599 203.164 349.589 203.186 349.589 203.21C349.785 204.349 349.915 205.497 349.979 206.65C350.079 207.65 350.169 208.71 350.259 209.74C350.349 210.77 350.449 211.81 350.559 212.84C350.609 213.34 350.649 213.84 350.709 214.33C350.709 214.584 350.739 214.834 350.799 215.08C350.816 215.29 350.885 215.493 350.999 215.67C350.399 216.45 349.799 217.22 349.209 218C346.839 221.13 344.519 224.3 342.209 227.47C342.129 227.57 342.269 227.7 342.349 227.6C344.549 224.727 346.803 221.9 349.109 219.12C350.829 219.19 352.579 219.06 354.299 219.04C356.019 219.02 357.919 219.04 359.729 219.04C359.749 219.034 359.767 219.021 359.779 219.004C359.792 218.987 359.798 218.966 359.798 218.945C359.798 218.924 359.792 218.904 359.779 218.887C359.767 218.87 359.749 218.857 359.729 218.85C357.909 218.85 356.099 218.91 354.289 218.91C352.639 218.91 350.959 218.84 349.289 218.91C351.289 216.45 353.349 214.02 355.389 211.58L357.629 208.93C358.325 209.024 359.029 209.047 359.729 209H362.199C363.739 209 365.279 209 366.829 208.94C370.009 208.89 373.199 208.78 376.389 208.77C376.409 208.764 376.427 208.751 376.439 208.734C376.452 208.717 376.458 208.696 376.458 208.675C376.458 208.654 376.452 208.634 376.439 208.617C376.427 208.6 376.409 208.587 376.389 208.58C373.189 208.58 369.999 208.4 366.809 208.32C365.269 208.32 363.719 208.23 362.179 208.21H359.709C359.239 208.21 358.709 208.21 358.279 208.21C360.039 206.14 361.789 204.05 363.539 201.98C363.563 201.97 363.584 201.955 363.601 201.936C363.619 201.917 363.632 201.895 363.639 201.87C365.349 199.87 367.059 197.87 368.799 195.87C369.029 195.59 369.269 195.32 369.509 195.05C374.379 195.2 379.229 194.88 384.099 194.98C384.229 194.82 384.229 194.62 384.099 194.62Z" fill="black"/>
<path d="M381.7 202.92H380.57C380.556 202.915 380.542 202.914 380.527 202.916C380.513 202.918 380.5 202.923 380.488 202.932C380.476 202.94 380.467 202.951 380.46 202.964C380.454 202.977 380.45 202.991 380.45 203.005C380.45 203.019 380.454 203.034 380.46 203.046C380.467 203.059 380.476 203.07 380.488 203.078C380.5 203.087 380.513 203.092 380.527 203.094C380.542 203.096 380.556 203.095 380.57 203.09H381.71C381.724 203.08 381.735 203.067 381.742 203.052C381.75 203.036 381.753 203.019 381.752 203.002C381.751 202.985 381.746 202.969 381.737 202.954C381.728 202.94 381.715 202.928 381.7 202.92Z" fill="black"/>
<path d="M379.18 202.93C377.67 202.93 376.18 202.88 374.67 202.84L372.41 202.77C371.713 202.68 371.007 202.68 370.31 202.77C370.292 202.77 370.274 202.777 370.261 202.79C370.248 202.803 370.24 202.821 370.24 202.84C370.24 202.858 370.248 202.876 370.261 202.889C370.274 202.902 370.292 202.91 370.31 202.91C371 203.055 371.707 203.106 372.41 203.06H374.66C376.16 203.06 377.66 203.06 379.17 203.06C379.31 203.13 379.3 202.94 379.18 202.93Z" fill="black"/>
<path d="M366.05 217C362.994 216.496 359.906 216.215 356.81 216.16V216.23C359.87 216.52 362.95 216.69 365.99 217.23C366.12 217.23 366.17 217 366.05 217Z" fill="black"/>
<path d="M353.5 203.59C353.5 203.32 353.43 203.05 353.4 202.79C353.32 202.18 353.23 201.58 353.13 200.98C352.95 199.83 352.75 198.69 352.53 197.55C352.53 197.44 352.33 197.47 352.34 197.55C352.49 198.73 352.61 199.91 352.72 201.09C352.78 201.67 352.82 202.26 352.87 202.84C352.854 203.4 352.935 203.958 353.11 204.49C353.133 204.527 353.166 204.556 353.205 204.574C353.244 204.592 353.287 204.599 353.33 204.592C353.373 204.586 353.412 204.567 353.444 204.538C353.476 204.509 353.499 204.472 353.51 204.43C353.558 204.152 353.555 203.867 353.5 203.59Z" fill="black"/>
<path d="M415 169.24C413.5 166.46 411.6 162.79 407.87 163.02C404.79 163.21 403.4 166.35 402.74 168.95C400.74 176.95 400.57 185.47 400.17 193.7C399.33 211.11 398.58 228.53 398.47 245.96C398.47 250.79 398.47 255.62 398.47 260.45C398.47 265.28 398.47 270.33 398.82 275.25C398.82 275.346 398.858 275.437 398.925 275.505C398.993 275.572 399.084 275.61 399.18 275.61C399.275 275.61 399.367 275.572 399.434 275.505C399.502 275.437 399.54 275.346 399.54 275.25C399.54 271.04 399.42 266.82 399.4 262.61C399.38 258.4 399.4 254.38 399.48 250.27C399.62 241.937 399.843 233.603 400.15 225.27C400.46 216.99 400.82 208.72 401.15 200.45C401.33 196.31 401.5 192.18 401.69 188.05C401.88 183.92 402.04 180.05 402.5 176.05C402.76 173.82 403.09 171.59 403.55 169.39C403.783 167.755 404.45 166.211 405.48 164.92C406.193 164.22 407.131 163.797 408.128 163.725C409.125 163.654 410.114 163.939 410.92 164.53C412.622 165.754 413.957 167.421 414.78 169.35C414.84 169.46 415 169.35 415 169.24Z" fill="black"/>
<path d="M413.94 167.92C413.94 167.92 410.87 157.08 417.65 162.5C428.94 171.5 429.34 191.13 429.34 191.13C429.34 191.13 409.27 179.47 406.78 171.78C403.06 160.33 413.94 167.92 413.94 167.92Z" fill="#403128"/>
<path d="M425.12 183.09C424.94 182.79 424.74 182.5 424.55 182.2C424.574 181.891 424.574 181.58 424.55 181.27C424.55 180.81 424.55 180.34 424.55 179.88C424.55 178.96 424.61 178.05 424.65 177.13C424.65 177.01 424.47 177.01 424.46 177.13C424.46 178.02 424.38 178.92 424.35 179.82C424.35 180.27 424.35 180.72 424.3 181.17C424.3 181.34 424.3 181.54 424.3 181.75C423.513 180.524 422.7 179.314 421.86 178.12L421.12 177.12C420.994 175.944 420.974 174.76 421.06 173.58C421.06 172.32 421.06 171.06 421.13 169.81C421.13 169.68 420.94 169.69 420.94 169.81C420.94 171.12 420.84 172.43 420.77 173.74C420.696 174.672 420.673 175.606 420.7 176.54C418.76 173.9 416.7 171.36 414.62 168.84C414.55 168.75 414.4 168.84 414.47 168.96C415.76 170.59 417 172.26 418.21 173.96C415.85 173.41 413.44 173.1 411.05 172.75C410.92 172.75 410.88 172.92 411.05 172.94C413.59 173.32 416.05 173.94 418.59 174.51C418.59 174.51 418.59 174.51 418.64 174.51C419.6 175.844 420.55 177.204 421.49 178.59C421.88 179.15 422.25 179.71 422.63 180.27H422.52L421.74 180.17C421.19 180.1 420.63 180.06 420.08 180.01C418.92 179.92 417.76 179.86 416.6 179.8C416.48 179.8 416.48 179.99 416.6 179.99C417.74 179.99 418.87 180.1 420 180.23L421.8 180.44L422.58 180.54H422.81L424.74 183.38C425.88 185.06 426.89 186.85 428.1 188.47C428.17 188.57 428.3 188.47 428.25 188.37C427.311 186.55 426.266 184.787 425.12 183.09Z" fill="black"/>
<path d="M420.12 170.85C420.12 170.43 420.12 170.01 420.12 169.59C420.097 168.702 420.134 167.813 420.23 166.93C420.235 166.915 420.237 166.899 420.234 166.883C420.232 166.868 420.226 166.853 420.216 166.84C420.207 166.827 420.195 166.817 420.181 166.81C420.167 166.803 420.151 166.799 420.135 166.799C420.12 166.799 420.104 166.803 420.09 166.81C420.076 166.817 420.064 166.827 420.054 166.84C420.045 166.853 420.039 166.868 420.037 166.883C420.034 166.899 420.035 166.915 420.04 166.93C420.04 167.81 419.94 168.69 419.9 169.56C419.9 170 419.9 170.44 419.9 170.88C419.9 171.08 419.9 171.28 419.9 171.49C419.865 171.695 419.865 171.905 419.9 172.11C419.906 172.128 419.918 172.143 419.933 172.154C419.948 172.165 419.967 172.17 419.985 172.17C420.004 172.17 420.022 172.165 420.037 172.154C420.053 172.143 420.064 172.128 420.07 172.11C420.101 171.918 420.101 171.722 420.07 171.53C420.12 171.29 420.12 171.07 420.12 170.85Z" fill="black"/>
<path d="M417.64 175.34C416.9 175.21 416.13 175.17 415.38 175.11C414.63 175.05 413.72 174.97 412.9 174.86C412.885 174.856 412.869 174.854 412.853 174.857C412.838 174.859 412.823 174.865 412.81 174.874C412.797 174.884 412.787 174.896 412.78 174.91C412.772 174.924 412.769 174.94 412.769 174.955C412.769 174.971 412.772 174.987 412.78 175.001C412.787 175.015 412.797 175.027 412.81 175.036C412.823 175.046 412.838 175.052 412.853 175.054C412.869 175.057 412.885 175.055 412.9 175.05C414.48 175.15 416.06 175.43 417.64 175.49C417.71 175.49 417.73 175.35 417.64 175.34Z" fill="black"/>
<path d="M424 175.4C424.025 175.539 424.025 175.681 424 175.82V176.17C424 176.42 424 176.68 424 176.93C424 177.18 424 177.43 424 177.69C423.955 177.908 423.955 178.132 424 178.35C424.005 178.356 424.011 178.361 424.018 178.365C424.025 178.368 424.032 178.37 424.04 178.37C424.048 178.37 424.055 178.368 424.062 178.365C424.069 178.361 424.075 178.356 424.08 178.35C424.1 178.244 424.1 178.136 424.08 178.03V176.93C424.08 176.67 424.08 176.42 424.08 176.17V175.82C424.08 175.71 424.08 175.49 424.08 175.4C424.08 175.31 423.82 175.22 424 175.4Z" fill="black"/>
<path d="M415.41 227C411.19 223.83 407.41 219.28 401.73 219.06C397.04 218.87 393.73 222.4 391.88 226.33C390.931 228.417 390.165 230.581 389.59 232.8C388.743 235.76 387.943 238.737 387.19 241.73C385.723 247.61 384.473 253.543 383.44 259.53C382.87 262.87 382.34 266.21 381.91 269.53C381.367 272.933 381.033 276.366 380.91 279.81C380.884 279.955 380.918 280.103 381.002 280.223C381.086 280.343 381.215 280.425 381.36 280.45C381.504 280.475 381.653 280.442 381.773 280.358C381.893 280.273 381.974 280.145 382 280C382.57 277.2 382.81 274.3 383.22 271.46C383.63 268.62 384.07 265.76 384.55 262.92C385.55 257.24 386.63 251.57 387.91 245.92C389.12 240.61 390.31 235.22 392.02 230.05C393.25 226.34 395.22 222.05 399.22 220.69C405.31 218.69 410.84 223.81 415.3 227.16C415.38 227.25 415.51 227.11 415.41 227Z" fill="black"/>
<path d="M411.05 224C411.05 224 407.16 212.89 412.78 210.71C421.22 207.45 443.29 232.31 438.97 270.39C438.97 270.39 421.91 261 409.32 250.39C396.73 239.78 393.51 226.02 399.05 222.45C404.59 218.88 411.05 224 411.05 224Z" fill="#403128"/>
<path d="M436.42 262.24C435.83 260.913 435.145 259.629 434.37 258.4C433.65 257.09 432.92 255.79 432.16 254.51C430.7 252 429.24 249.51 427.74 247C427.5 246.6 427.25 246.2 427 245.8C427 245.65 427.06 245.5 427.1 245.36C427.18 244.99 427.26 244.62 427.35 244.25C427.53 243.43 427.68 242.59 427.83 241.76C428.14 240.13 428.42 238.48 428.83 236.88C428.83 236.76 428.67 236.72 428.64 236.88C428.29 238.5 427.78 240.11 427.3 241.7C427.06 242.49 426.81 243.27 426.6 244.06L426.39 244.88C424.57 241.88 422.73 238.95 420.74 236.09C420.869 235.697 420.937 235.285 420.94 234.87C421 234.31 421.07 233.76 421.13 233.2C421.28 231.95 421.42 230.69 421.61 229.44C421.928 226.989 422.372 224.556 422.94 222.15C422.94 222.03 422.78 221.99 422.75 222.15C422.15 224.55 421.49 226.95 421.03 229.38C420.81 230.57 420.6 231.77 420.44 232.97C420.36 233.58 420.29 234.18 420.23 234.78C420.23 234.96 420.18 235.15 420.16 235.33C419.55 234.47 418.94 233.6 418.3 232.76C416.35 230.2 414.3 227.7 412.3 225.21C412.23 225.11 412.07 225.21 412.15 225.32C415.636 229.782 418.839 234.458 421.74 239.32L423.39 242.01L422.85 241.94C422.13 241.85 421.41 241.81 420.7 241.74C419.26 241.61 417.83 241.48 416.39 241.37C413.52 241.14 410.64 240.96 407.77 240.66C407.75 240.667 407.733 240.68 407.72 240.697C407.708 240.714 407.701 240.734 407.701 240.755C407.701 240.777 407.708 240.797 407.72 240.814C407.733 240.831 407.75 240.844 407.77 240.85C410.67 241.18 413.56 241.65 416.45 242.06L420.72 242.63C421.803 242.852 422.905 242.965 424.01 242.97L427.4 248.47C427.147 248.45 426.893 248.45 426.64 248.47H422.53C420.68 248.47 418.83 248.47 416.98 248.47C416.86 248.47 416.88 248.66 416.98 248.66C418.86 248.66 420.72 248.78 422.6 248.88C423.49 248.88 424.37 248.98 425.26 249.04L426.59 249.13C426.975 249.216 427.375 249.216 427.76 249.13C428.76 250.69 429.69 252.24 430.64 253.81C431.59 255.38 432.42 256.68 433.33 258.1C434.179 259.623 435.145 261.078 436.22 262.45C436.31 262.42 436.46 262.36 436.42 262.24Z" fill="black"/>
<path d="M428.29 231.46C428.121 232.683 427.867 233.893 427.53 235.08C427.22 236.31 426.86 237.53 426.46 238.74C426.45 238.756 426.444 238.774 426.441 238.792C426.439 238.81 426.441 238.829 426.447 238.847C426.453 238.864 426.464 238.88 426.477 238.893C426.49 238.906 426.506 238.915 426.524 238.921C426.542 238.927 426.56 238.928 426.579 238.925C426.597 238.922 426.615 238.915 426.63 238.905C426.645 238.894 426.657 238.88 426.666 238.863C426.675 238.847 426.68 238.829 426.68 238.81C427.06 237.61 427.394 236.4 427.68 235.18C427.97 233.96 428.16 232.71 428.46 231.49C428.51 231.37 428.31 231.33 428.29 231.46Z" fill="black"/>
<path d="M415.76 238.89C415.5 238.669 415.17 238.549 414.83 238.55L413.22 238.33C412.22 238.19 411.22 238.08 410.22 237.96C408.14 237.72 406.06 237.52 403.98 237.26C403.96 237.266 403.942 237.279 403.93 237.296C403.918 237.313 403.911 237.334 403.911 237.355C403.911 237.376 403.918 237.396 403.93 237.413C403.942 237.43 403.96 237.443 403.98 237.45C405.98 237.69 407.89 237.98 409.85 238.24C410.8 238.37 411.76 238.5 412.72 238.61L414.11 238.77C414.648 238.774 415.181 238.865 415.69 239.04C415.76 239.09 415.83 239 415.76 238.89Z" fill="black"/>
<path d="M428.26 255.64C427.26 255.56 426.26 255.53 425.31 255.5L423.82 255.45H423.11C422.799 255.464 422.488 255.447 422.18 255.4C422.04 255.4 422.03 255.61 422.18 255.59C422.469 255.56 422.761 255.56 423.05 255.59H423.82L425.31 255.68C426.31 255.74 427.31 255.8 428.26 255.8C428.37 255.85 428.38 255.65 428.26 255.64Z" fill="black"/>
<path d="M434.27 251.38C434.39 250.83 434.49 250.27 434.59 249.71C434.8 248.61 435 247.51 435.2 246.41C435.194 246.39 435.181 246.372 435.164 246.36C435.147 246.347 435.126 246.341 435.105 246.341C435.084 246.341 435.064 246.347 435.047 246.36C435.03 246.372 435.017 246.39 435.01 246.41L434.29 249.62C434.16 250.15 434.05 250.69 433.93 251.22L433.78 251.97C433.701 252.222 433.671 252.486 433.69 252.75C433.69 252.84 433.84 252.92 433.9 252.82C434.114 252.368 434.24 251.879 434.27 251.38Z" fill="black"/>
<path d="M376.54 275.62L377.73 289.12L381.76 334.7H417.46L422.5 289.12L423.99 275.62H376.54Z" fill="#4F4F4F"/>
<path d="M376.54 275.62L377.73 289.12H422.5L423.99 275.62H376.54Z" fill="black"/>
<path d="M373.01 282.89H427.53V271.94H373.01V282.89Z" fill="#4F4F4F"/>
<path d="M140.9 280.48C138.8 283.05 136.96 350.24 139.46 358.48C141.96 366.72 157.75 381.96 158.35 384.13C158.779 386.194 158.779 388.325 158.35 390.39C158.11 391.39 153.14 395.5 151.48 397.5C150.63 398.5 149.19 406.18 150.48 406.78C151.77 407.38 161.56 406.66 164.48 403.89C167.4 401.12 174.78 389.66 175.48 387.89C176.18 386.12 174.2 373.55 173.69 371.02C173.18 368.49 189.94 332.6 190 319.91C190.06 307.22 145.29 275.12 140.9 280.48Z" fill="#403128"/>
<path d="M160.671 397.5C160.681 397.486 160.697 397.478 160.713 397.476C160.73 397.474 160.747 397.479 160.761 397.49C160.774 397.5 160.782 397.516 160.784 397.533C160.786 397.549 160.781 397.566 160.771 397.58C159.771 399.15 158.921 400.78 158.121 402.44C157.275 403.881 156.924 405.56 157.121 407.22C157.121 407.241 157.112 407.261 157.097 407.276C157.082 407.291 157.062 407.3 157.041 407.3C157.019 407.3 156.999 407.291 156.984 407.276C156.969 407.261 156.961 407.241 156.961 407.22C156.46 405.586 156.488 403.836 157.041 402.22C157.89 400.399 159.129 398.788 160.671 397.5Z" fill="black"/>
<path d="M155.26 397.39C155.271 397.383 155.283 397.379 155.296 397.38C155.308 397.38 155.321 397.385 155.33 397.393C155.34 397.4 155.348 397.411 155.351 397.423C155.355 397.435 155.354 397.448 155.35 397.46C154.486 399.013 153.721 400.62 153.06 402.27C152.47 403.65 151.35 405.78 152.43 407.17C152.61 407.41 152.43 407.48 152.23 407.28C150.85 406.08 151.33 403.92 151.85 402.41C152.59 400.499 153.756 398.782 155.26 397.39Z" fill="black"/>
<path d="M247.12 277.32C249.22 279.89 251.06 347.08 248.56 355.37C246.06 363.66 230.27 378.84 229.67 381C229.241 383.068 229.241 385.202 229.67 387.27C229.91 388.27 235.37 392.97 236.54 394.38C238.21 396.38 239.87 402.15 238.54 402.75C237.21 403.35 225.4 402.75 223.54 400.75C220.77 397.86 213.23 386.53 212.54 384.75C211.85 382.97 213.83 370.4 214.33 367.87C214.83 365.34 198.06 329.44 198.04 316.75C198.02 304.06 242.73 272 247.12 277.32Z" fill="#403128"/>
<g opacity="0.1">
<path d="M247.12 277.32C249.22 279.89 251.06 347.08 248.56 355.37C246.06 363.66 230.27 378.84 229.67 381C229.241 383.068 229.241 385.202 229.67 387.27C229.91 388.27 235.37 392.97 236.54 394.38C238.21 396.38 239.87 402.15 238.54 402.75C237.21 403.35 225.4 402.75 223.54 400.75C220.77 397.86 213.23 386.53 212.54 384.75C211.85 382.97 213.83 370.4 214.33 367.87C214.83 365.34 198.06 329.44 198.04 316.75C198.02 304.06 242.73 272 247.12 277.32Z" fill="#EBE6E1"/>
</g>
<path d="M227.06 393.819C227.01 393.819 226.93 393.819 226.97 393.909C228.03 395.419 229.04 396.969 229.97 398.579C230.925 399.952 231.406 401.599 231.34 403.269C231.34 403.291 231.348 403.311 231.363 403.326C231.378 403.341 231.399 403.349 231.42 403.349C231.441 403.349 231.461 403.341 231.476 403.326C231.491 403.311 231.5 403.291 231.5 403.269C231.891 401.599 231.74 399.848 231.07 398.269C230.08 396.507 228.71 394.987 227.06 393.819Z" fill="black"/>
<path d="M232.46 393.33C232.4 393.33 232.32 393.33 232.36 393.42C233.335 394.906 234.213 396.452 234.99 398.05C235.67 399.39 236.94 401.43 235.99 402.9C235.82 403.15 235.99 403.21 236.19 403C237.49 401.7 236.86 399.58 236.24 398.11C235.354 396.254 234.062 394.621 232.46 393.33Z" fill="black"/>
<path d="M240.71 387.399C240.71 387.399 273.32 408.729 277.38 409.939C281.44 411.149 336.94 435.789 341.22 436.209C342.95 436.379 360.53 437.679 361.61 437.139C362.69 436.599 356.91 428.649 352.84 426.749C348.77 424.849 337.03 423.749 335.49 422.749C333.95 421.749 300.2 387.589 298.28 384.609C296.36 381.629 291.28 354.029 291.28 354.029L240.71 387.399Z" fill="#403128"/>
<path d="M348.451 429.239C348.391 429.239 348.321 429.239 348.371 429.329C349.581 430.719 350.751 432.159 351.831 433.659C352.926 434.926 353.576 436.518 353.681 438.189C353.687 438.207 353.698 438.222 353.713 438.233C353.729 438.244 353.747 438.25 353.766 438.25C353.784 438.25 353.802 438.244 353.818 438.233C353.833 438.222 353.844 438.207 353.851 438.189C354.052 436.475 353.702 434.741 352.851 433.239C351.851 431.479 350.111 430.369 348.451 429.239Z" fill="black"/>
<path d="M353.76 428.19C353.71 428.14 353.64 428.19 353.68 428.28C354.806 429.654 355.841 431.101 356.78 432.61C357.6 433.87 359.08 435.77 358.26 437.33C358.12 437.6 358.26 437.64 358.47 437.41C359.62 435.98 358.77 433.93 358 432.54C356.934 430.788 355.484 429.3 353.76 428.19Z" fill="black"/>
<path opacity="0.1" d="M298 384L254.66 396.35C247.17 391.58 240.75 387.35 240.75 387.35L291.34 354C291.34 354 295.88 379.05 298 384Z" fill="#EBE6E1"/>
<path d="M261.05 330.209C252.56 316.209 248.73 257.869 234.76 245.339C226.76 238.129 177.57 200.749 160.69 205.429C155.18 206.959 138.34 266.789 141.23 285.589C144.47 306.589 158.45 340.589 164.9 348.589C171.35 356.589 209.98 352.449 215.9 355.709C221.82 358.969 261.05 330.209 261.05 330.209Z" fill="#403128"/>
<path d="M162.64 347.35C162.51 346.713 162.34 346.085 162.13 345.47C161.78 344.3 161.39 343.15 160.99 342C160.2 339.73 159.35 337.49 158.48 335.26C156.73 330.79 154.77 326.4 152.76 322.03C151.62 319.53 150.45 317.03 149.29 314.55C149.29 314.45 149.08 314.55 149.12 314.62C152.64 323.62 155.78 332.67 159.41 341.62C159.92 342.87 160.41 344.11 160.97 345.35C161.21 345.91 161.47 346.46 161.73 347.01C162.07 347.74 162.56 348.35 162.84 349.11C162.84 349.2 163.03 349.16 162.99 349.06C162.821 348.502 162.703 347.93 162.64 347.35Z" fill="black"/>
<path d="M144.19 303.18C143.78 300.419 143.72 297.617 144.01 294.84C144.24 292.01 144.55 289.18 144.95 286.37C145.41 283.203 145.94 280.043 146.54 276.89C146.54 276.84 146.47 276.82 146.46 276.89C145.05 282.54 143.99 288.27 143.11 294.03C142.596 296.802 142.435 299.628 142.63 302.44C142.923 305.117 143.621 307.733 144.7 310.2C145.923 312.969 147.35 315.643 148.97 318.2C149.02 318.27 149.15 318.2 149.12 318.13C147.25 313.24 145.07 308.38 144.19 303.18Z" fill="black"/>
<path d="M160.52 223.41C155.7 210.88 137.69 185.75 144.28 155.92C149.16 133.92 175.36 102.41 174.43 86.9197C173.71 74.8097 144.78 82.2997 144.28 68.2397C143.7 51.8597 177.67 45.2397 189.93 65.5897C206 92.2997 166.55 141 161.6 166.41C156.36 193.34 169.32 212.86 168.78 214.13C168.24 215.4 160.52 223.41 160.52 223.41Z" fill="#403128"/>
<path d="M165.611 332C165.611 332 159.871 363 165.341 373.4C169.511 381.4 180.041 407.97 182.571 422.05C182.981 424.36 183.981 428.81 184.651 429.9C185.321 430.99 200.061 434.95 201.731 434.17C202.731 433.71 202.631 428.17 201.911 426.93C200.911 425.08 196.601 421.82 196.491 421.2C196.301 420.2 195.201 389.38 195.611 386.72C196.021 384.06 208.791 363 210.701 353C212.611 343 167.551 328.85 165.611 332Z" fill="#403128"/>
<path d="M192.41 424.429C192.401 424.416 192.386 424.407 192.37 424.404C192.355 424.401 192.338 424.405 192.325 424.414C192.312 424.424 192.303 424.438 192.3 424.454C192.297 424.47 192.301 424.486 192.31 424.499C193.25 426.089 194.13 427.719 194.92 429.389C195.767 430.834 196.118 432.516 195.92 434.179C195.92 434.201 195.928 434.221 195.943 434.236C195.958 434.251 195.979 434.259 196 434.259C196.021 434.259 196.041 434.251 196.056 434.236C196.071 434.221 196.08 434.201 196.08 434.179C196.604 432.554 196.604 430.805 196.08 429.179C195.228 427.341 193.973 425.718 192.41 424.429Z" fill="black"/>
<path d="M197.831 424.37C197.781 424.32 197.691 424.37 197.731 424.44C198.584 426 199.335 427.613 199.981 429.27C200.561 430.66 201.661 432.79 200.561 434.18C200.381 434.41 200.561 434.49 200.761 434.29C202.161 433.1 201.691 430.93 201.191 429.43C200.467 427.511 199.319 425.781 197.831 424.37Z" fill="black"/>
<path d="M172.31 388.41C171.87 387.22 171.49 386.01 171.06 384.81C170.2 382.41 169.26 380.04 168.32 377.67C167.38 375.3 166.48 373.12 165.57 370.84C164.602 368.603 163.929 366.25 163.57 363.84C163.353 361.382 163.337 358.91 163.52 356.45C163.64 353.93 163.8 351.4 164 348.88C164.39 343.88 165 338.88 165.57 333.88C166.26 328.24 166.86 322.59 167.83 316.98C167.836 316.945 167.829 316.91 167.81 316.88C167.79 316.851 167.761 316.83 167.727 316.821C167.693 316.812 167.657 316.816 167.626 316.833C167.596 316.849 167.572 316.877 167.56 316.91C166.34 321.91 165.25 326.91 164.28 331.91C163.413 336.874 162.809 341.881 162.47 346.91C162.263 349.47 162.093 352.033 161.96 354.6C161.773 357.145 161.727 359.699 161.82 362.25C162.1 367.25 164.06 371.84 166.04 376.37C167.19 378.99 168.3 381.64 169.53 384.22C170.15 385.51 170.82 386.77 171.42 388.07C172.02 389.37 172.76 390.7 173.36 392.07C173.36 392.15 173.54 392.07 173.51 392C173.09 390.83 172.75 389.61 172.31 388.41Z" fill="black"/>
<path d="M164.71 309.239C164.71 309.184 164.688 309.13 164.649 309.091C164.609 309.051 164.556 309.029 164.5 309.029C164.445 309.029 164.391 309.051 164.352 309.091C164.312 309.13 164.29 309.184 164.29 309.239C164.1 312.019 163.88 314.819 163.86 317.609C163.86 318.979 163.86 320.349 163.97 321.719C163.97 322.379 164.08 323.049 164.12 323.719C164.132 324.392 164.209 325.062 164.35 325.719C164.35 325.741 164.359 325.761 164.374 325.776C164.389 325.791 164.409 325.799 164.43 325.799C164.452 325.799 164.472 325.791 164.487 325.776C164.502 325.761 164.51 325.741 164.51 325.719C164.767 324.435 164.905 323.129 164.92 321.819C165.01 320.409 165.07 318.989 165.07 317.579C165.07 314.799 164.88 311.999 164.71 309.239Z" fill="black"/>
<path d="M299 344C302 344.1 301.22 294.45 289.55 281.39C287.87 279.52 261.45 313.49 261.08 314.64C260.71 315.79 292.75 343.77 299 344Z" fill="#403128"/>
<path opacity="0.1" d="M298.05 343.78C300.63 343.87 299.94 301.5 289.98 290.35C288.55 288.75 265.98 317.74 265.69 318.73C265.4 319.72 292.74 343.59 298.05 343.78Z" fill="#EBE6E1"/>
<path d="M288.9 340.7C289.019 339.357 289.213 338.021 289.48 336.7C289.736 335.348 290.07 334.013 290.48 332.7C291.228 330.104 292.35 327.632 293.81 325.36C295.234 323.073 297.134 321.118 299.38 319.63C299.942 319.266 300.523 318.932 301.12 318.63C301.721 318.325 302.338 318.055 302.97 317.82C304.24 317.324 305.552 316.942 306.89 316.68C304.13 316.903 301.459 317.766 299.09 319.2C297.892 319.905 296.795 320.769 295.83 321.77C294.848 322.756 293.967 323.838 293.2 325C291.732 327.349 290.633 329.908 289.94 332.59C289.234 335.235 288.885 337.962 288.9 340.7Z" fill="black"/>
<path d="M287 339.85C286.865 337.892 286.865 335.928 287 333.97C287.096 332.015 287.313 330.068 287.65 328.14C288.266 324.286 289.417 320.536 291.07 317C291.895 315.236 292.865 313.544 293.97 311.94C295.091 310.346 296.339 308.844 297.7 307.45C299.065 306.048 300.55 304.77 302.14 303.63C303.732 302.472 305.403 301.426 307.14 300.5C303.519 302.098 300.202 304.315 297.34 307.05C295.91 308.43 294.611 309.94 293.46 311.56C292.321 313.185 291.318 314.901 290.46 316.69C288.792 320.293 287.66 324.12 287.1 328.05C286.507 331.959 286.474 335.932 287 339.85Z" fill="black"/>
<path d="M196.39 352.749C193.39 353.129 189.56 303.629 199.96 289.529C201.45 287.529 230.96 318.869 231.41 319.979C231.86 321.089 202.57 351.999 196.39 352.749Z" fill="#403128"/>
<path opacity="0.1" d="M197.29 352.45C194.73 352.78 191.46 310.54 200.29 298.51C201.57 296.78 226.73 323.51 227.13 324.51C227.53 325.51 202.56 351.77 197.29 352.45Z" fill="#EBE6E1"/>
<path d="M231.54 319.67C229.54 316.67 219.65 306.02 217.03 303.46C214.41 300.9 211.48 298.32 208.64 295.82C207.153 294.487 205.656 293.177 204.15 291.89L201.88 290C201.289 289.389 200.616 288.864 199.88 288.44C198.08 287.64 194.42 297.04 192.57 307.73C191.427 314.893 191.071 322.16 191.51 329.4C191.679 333.465 192.12 337.514 192.83 341.52C193.498 345.483 194.451 349.394 195.68 353.22C195.685 353.235 195.696 353.249 195.709 353.258C195.722 353.267 195.738 353.272 195.755 353.272C195.771 353.272 195.787 353.267 195.8 353.258C195.814 353.249 195.824 353.235 195.83 353.22C195.13 349.77 194.45 346.32 194.04 342.84C193.63 339.36 193.34 335.95 193.18 332.5C192.819 325.569 193.06 318.62 193.9 311.73C195.64 298.42 199.71 290 199.84 290.11L202.02 292.11C203.406 293.41 204.81 294.7 206.23 295.98C208.96 298.44 211.68 300.92 214.46 303.32C217.41 305.85 228.7 316.87 231.26 319.92C231.38 320.05 231.67 319.87 231.54 319.67Z" fill="black"/>
<path d="M206.11 348.54C205.854 347.188 205.52 345.853 205.11 344.54C204.739 343.235 204.291 341.953 203.77 340.7C202.78 338.186 201.433 335.829 199.77 333.7C198.132 331.563 196.06 329.798 193.69 328.52C193.098 328.194 192.487 327.903 191.86 327.65C191.23 327.43 190.6 327.17 189.94 327.01C188.632 326.64 187.293 326.386 185.94 326.25C188.708 326.212 191.447 326.818 193.94 328.02C195.198 328.621 196.371 329.384 197.43 330.29C198.503 331.185 199.478 332.191 200.34 333.29C202.042 335.484 203.391 337.93 204.34 340.54C205.288 343.114 205.884 345.805 206.11 348.54Z" fill="black"/>
<path d="M207.93 347.51C207.896 345.547 207.725 343.589 207.42 341.65C207.145 339.713 206.748 337.796 206.23 335.91C205.245 332.127 203.734 328.502 201.74 325.14C200.752 323.462 199.628 321.866 198.38 320.37C197.113 318.891 195.732 317.514 194.25 316.25C192.76 314.982 191.16 313.847 189.47 312.86C187.785 311.86 186.035 310.975 184.23 310.21C187.986 311.464 191.495 313.363 194.6 315.82C196.149 317.061 197.582 318.44 198.88 319.94C200.172 321.451 201.336 323.066 202.36 324.77C204.366 328.198 205.852 331.905 206.77 335.77C207.714 339.608 208.104 343.561 207.93 347.51Z" fill="black"/>
<path d="M279.66 388.24C280.58 387.95 299.56 374.78 305.98 355.5C307.07 352.22 282.19 317.91 270.12 311.63C264.03 308.46 227.91 313.63 225.74 314.32C217.26 317.03 192.38 352.48 193.54 363.32C193.96 367.32 205.85 382.84 226.59 391.48C231.65 393.63 257.7 395.19 279.66 388.24Z" fill="#403128"/>
<path d="M200.62 344.61C197.939 347.669 195.728 351.11 194.06 354.82C193.265 356.69 192.674 358.642 192.3 360.64C191.917 362.618 191.706 364.625 191.67 366.64C191.676 366.655 191.686 366.668 191.699 366.678C191.713 366.687 191.729 366.692 191.745 366.692C191.761 366.692 191.777 366.687 191.791 366.678C191.804 366.668 191.814 366.655 191.82 366.64C192.29 364.69 192.82 362.77 193.41 360.86C194 358.95 194.72 357.15 195.41 355.31C196.771 351.569 198.574 348.003 200.78 344.69C200.86 344.64 200.7 344.52 200.62 344.61Z" fill="black"/>
<path d="M201.63 374.85C199.779 372.969 198.124 370.905 196.69 368.69C195.165 366.09 194.519 363.067 194.85 360.07C194.85 359.97 194.71 359.93 194.7 360.07C194.376 361.651 194.195 363.257 194.16 364.87C194.222 366.388 194.629 367.873 195.35 369.21C196.76 371.76 199.12 373.48 201.49 375.08C201.61 375.12 201.71 374.94 201.63 374.85Z" fill="black"/>
<path d="M277.61 316.8C276.04 315.32 274.52 313.8 272.82 312.45C272.072 311.812 271.237 311.283 270.34 310.88C269.42 310.51 259.02 309.13 227.13 313.16C224.943 313.578 222.958 314.715 221.49 316.39C219.74 318.12 218.17 320.03 216.49 321.86C216.41 321.94 216.49 322.04 216.6 321.97C218.17 320.56 219.74 319.14 221.33 317.75C222.92 316.36 224.62 314.92 226.6 314.65C243.03 312.36 265.65 310.73 271.6 312.79C272.625 313.313 273.566 313.988 274.39 314.79C275.39 315.54 276.39 316.24 277.39 317.01C277.55 317.12 277.74 316.93 277.61 316.8Z" fill="black"/>
<path d="M304.68 349.139C302.778 345.78 300.441 342.687 297.73 339.939C296.18 338.309 294.54 336.779 293.01 335.129C292.94 335.059 292.84 335.129 292.9 335.249C294.58 337.149 296.11 339.179 297.61 341.249C299.11 343.319 300.43 345.099 301.73 347.109C303.03 349.119 304 350.999 305.07 352.999C306.228 355.052 307.093 357.257 307.64 359.549C307.64 359.649 307.83 359.629 307.82 359.549C307.469 355.907 306.402 352.369 304.68 349.139Z" fill="black"/>
<path d="M304.82 358.599C297.54 376.179 280.53 387.979 279.66 388.239C257.66 395.239 231.66 393.639 226.59 391.519C217.314 387.669 208.872 382.059 201.73 374.999L201.63 374.869C201.63 374.869 210.14 372.019 214.79 372.949C219.44 373.879 226.1 380.429 235.96 380.209C245.82 379.989 246.28 373.929 248.52 369.999C249.52 368.159 252.4 364.689 259.2 366.469C259.2 366.469 260.7 349.959 262.42 349.289C264.58 348.459 267.68 365.289 268.11 365.689C268.54 366.089 270.35 363.769 272.77 365.689C275.19 367.609 277.32 374.369 284.31 374.369C292.77 374.369 293.51 362.679 298.6 360.109C300.54 359.164 302.662 358.649 304.82 358.599Z" fill="white"/>
<path d="M282 346.28C288.53 345.58 292.51 351.75 293.32 359.37C293.98 365.55 290.77 372.26 284.5 372.93C278.23 373.6 273.56 366.6 272.95 360.81C272.34 355.02 274.85 347 282 346.28Z" fill="black"/>
<path d="M281.49 347.939C287.63 347.289 291.37 353.089 292.13 360.249C292.75 366.049 289.74 372.369 283.84 372.989C277.94 373.609 273.56 367.049 273 361.599C272.44 356.149 274.82 348.649 281.49 347.939Z" fill="white"/>
<path d="M283.06 352.999C287.87 352.489 290.79 356.999 291.39 362.639C291.87 367.179 289.51 372.119 284.9 372.639C280.29 373.159 276.9 367.989 276.4 363.719C275.9 359.449 277.84 353.589 283.06 352.999Z" fill="black"/>
<path d="M279.501 351C281.681 350.77 283.011 352.83 283.281 355.38C283.501 357.44 282.431 359.68 280.331 359.91C278.231 360.14 276.681 357.79 276.471 355.86C276.261 353.93 277.131 351.25 279.501 351Z" fill="white"/>
<path d="M235.66 352.389C227.19 351.259 222.07 357.199 221.06 364.799C220.871 366.49 221.019 368.201 221.497 369.833C221.975 371.466 222.772 372.987 223.843 374.308C224.915 375.63 226.238 376.725 227.736 377.53C229.234 378.336 230.877 378.835 232.57 378.999C240.71 380.079 246.71 373.359 247.48 367.579C247.718 365.803 247.6 363.998 247.132 362.268C246.664 360.539 245.856 358.919 244.756 357.505C243.656 356.091 242.285 354.911 240.723 354.032C239.161 353.154 237.44 352.595 235.66 352.389Z" fill="black"/>
<path d="M236.27 354.09C228.27 353.03 223.49 358.61 222.54 365.76C222.364 367.347 222.506 368.953 222.956 370.485C223.407 372.016 224.157 373.443 225.164 374.683C226.17 375.922 227.414 376.949 228.821 377.704C230.228 378.459 231.771 378.926 233.36 379.08C241.01 380.08 246.66 373.78 247.36 368.35C247.584 366.683 247.473 364.988 247.035 363.364C246.596 361.741 245.838 360.221 244.806 358.893C243.774 357.566 242.487 356.457 241.021 355.633C239.556 354.808 237.941 354.283 236.27 354.09Z" fill="white"/>
<path d="M237.47 359.109C231.23 358.279 227.47 362.649 226.72 368.239C226.583 369.483 226.694 370.742 227.048 371.942C227.401 373.142 227.989 374.26 228.778 375.232C229.567 376.203 230.541 377.008 231.643 377.6C232.746 378.191 233.954 378.558 235.2 378.679C241.2 379.469 245.6 374.519 246.2 370.269C246.376 368.961 246.288 367.63 245.942 366.356C245.596 365.082 244.999 363.89 244.186 362.85C243.372 361.81 242.359 360.944 241.206 360.301C240.052 359.659 238.782 359.254 237.47 359.109Z" fill="black"/>
<path d="M232.001 356.939C229.171 356.559 227.461 358.549 227.131 361.079C227.067 361.643 227.116 362.215 227.275 362.76C227.434 363.304 227.701 363.812 228.058 364.253C228.415 364.695 228.857 365.06 229.357 365.329C229.857 365.598 230.405 365.764 230.971 365.819C232.134 365.947 233.301 365.623 234.232 364.914C235.163 364.204 235.785 363.165 235.971 362.009C236.05 361.415 236.01 360.81 235.852 360.231C235.695 359.652 235.423 359.111 235.053 358.638C234.683 358.166 234.223 357.772 233.698 357.48C233.174 357.189 232.597 357.005 232.001 356.939Z" fill="white"/>
<path d="M258.841 366.24C258.971 366.94 263.371 369.35 263.841 369.33C264.311 369.31 268.541 366.44 268.621 365.73C268.701 365.02 264.701 364.96 263.681 365.02C262.661 365.08 258.721 365.54 258.841 366.24Z" fill="black"/>
<path d="M272.08 370.62C271.43 371.62 270.77 372.69 270.08 373.62C269.73 374.085 269.331 374.511 268.89 374.89C268.721 375.033 268.517 375.129 268.3 375.17C268.096 375.138 267.904 375.055 267.74 374.93C267.335 374.584 266.996 374.167 266.74 373.7C266.436 373.202 266.166 372.684 265.93 372.15C265.454 371.06 265.046 369.941 264.71 368.8L264.1 366.71L263.49 368.8C263.086 370.195 262.564 371.553 261.93 372.86C261.623 373.501 261.254 374.11 260.83 374.68C260.473 375.219 259.965 375.64 259.37 375.89H259.17H258.96C258.802 375.888 258.645 375.871 258.49 375.84C258.142 375.773 257.806 375.658 257.49 375.5C256.857 375.165 256.269 374.752 255.74 374.27C254.649 373.267 253.664 372.154 252.8 370.95C253.471 372.302 254.322 373.557 255.33 374.68C255.85 375.264 256.449 375.772 257.11 376.19C257.826 376.688 258.709 376.885 259.57 376.74C260.391 376.488 261.111 375.984 261.63 375.3C262.13 374.679 262.566 374.009 262.93 373.3C263.64 371.938 264.219 370.512 264.66 369.04H263.44C263.804 370.241 264.262 371.411 264.81 372.54C265.104 373.113 265.438 373.664 265.81 374.19C266.185 374.765 266.675 375.255 267.25 375.63C267.594 375.844 267.995 375.949 268.4 375.93C268.784 375.853 269.134 375.657 269.4 375.37C269.855 374.916 270.246 374.401 270.56 373.84C271.158 372.812 271.666 371.735 272.08 370.62Z" fill="black"/>
<path d="M295.86 364.669C299.44 364.309 303.02 364.059 306.6 363.899C310.18 363.739 313.78 363.619 317.36 363.669C319.16 363.669 320.95 363.669 322.74 363.719C324.53 363.769 326.33 363.849 328.12 363.949C331.71 364.099 335.28 364.449 338.87 364.759C337.09 364.469 335.32 364.169 333.53 363.949C331.74 363.729 329.95 363.529 328.16 363.389C324.57 363.079 320.97 362.979 317.36 362.939C313.75 362.899 310.16 363.069 306.57 363.339C304.78 363.479 302.98 363.659 301.19 363.859C299.4 364.059 297.62 364.329 295.86 364.669Z" fill="black"/>
<path d="M297.37 366.72C298.99 366.72 300.61 366.79 302.23 366.86C303.85 366.93 305.47 366.98 307.08 367.07C310.31 367.23 313.54 367.42 316.76 367.72C318.38 367.83 319.99 368 321.6 368.15L326.42 368.7L328.83 368.99L331.23 369.33C332.84 369.52 334.43 369.83 336.04 370.04C332.89 369.28 329.71 368.62 326.49 368.14C323.27 367.66 320.06 367.29 316.82 367C313.58 366.71 310.35 366.56 307.1 366.51C303.85 366.46 300.61 366.49 297.37 366.72Z" fill="black"/>
<path d="M296.5 368.779C297.84 368.969 299.18 369.159 300.5 369.379C301.82 369.599 303.16 369.789 304.5 370.019C307.16 370.489 309.82 370.939 312.5 371.459C315.18 371.979 317.79 372.509 320.43 373.079C323.07 373.649 325.69 374.249 328.34 374.829C327.047 374.396 325.757 373.986 324.47 373.599C323.17 373.239 321.87 372.869 320.55 372.539C317.94 371.839 315.29 371.279 312.64 370.749C309.99 370.219 307.31 369.809 304.64 369.469C301.97 369.129 299.21 368.859 296.5 368.779Z" fill="black"/>
<path d="M215.901 376.32C213.681 376.16 211.441 376.13 209.211 376.1C206.981 376.07 204.751 376.1 202.511 376.23C198.051 376.4 193.601 376.77 189.161 377.23C184.721 377.69 180.291 378.39 175.911 379.23C173.721 379.64 171.541 380.13 169.361 380.63C168.271 380.88 167.201 381.17 166.121 381.46L162.891 382.33C167.261 381.42 171.611 380.48 176.011 379.78C178.211 379.4 180.411 379.07 182.611 378.78C184.811 378.49 187.021 378.18 189.241 377.96C193.661 377.41 198.101 377.06 202.541 376.77C206.981 376.48 211.441 376.33 215.901 376.32Z" fill="black"/>
<path d="M214.32 379.06C210.32 379.26 206.32 379.69 202.32 380.22C198.32 380.75 194.32 381.44 190.4 382.22C186.48 383 182.52 383.9 178.64 384.95C174.76 386 170.9 387.2 167.12 388.55C169.07 388.05 170.98 387.43 172.93 386.96L175.85 386.19L178.77 385.49C180.77 385.01 182.69 384.58 184.64 384.13C186.59 383.68 188.57 383.29 190.54 382.93C194.47 382.12 198.43 381.43 202.4 380.8C204.4 380.47 206.4 380.17 208.4 379.89C210.4 379.61 212.33 379.31 214.32 379.06Z" fill="black"/>
<path d="M215.68 381.47C212.36 381.98 209.09 382.71 205.83 383.47C202.57 384.23 199.34 385.21 196.13 386.18C192.92 387.15 189.75 388.26 186.62 389.46C185.04 390.04 183.49 390.67 181.93 391.3C180.37 391.93 178.85 392.61 177.32 393.3C180.48 392.2 183.63 391.04 186.8 389.98C189.97 388.92 193.15 387.85 196.35 386.87C199.55 385.89 202.75 384.93 205.97 384.01C207.58 383.54 209.19 383.11 210.81 382.68C212.43 382.25 214.05 381.87 215.68 381.47Z" fill="black"/>
<path d="M286.62 411.67C286.565 411.092 286.679 410.51 286.949 409.995C287.219 409.48 287.633 409.055 288.14 408.77C287.653 408.474 287.273 408.03 287.055 407.504C286.838 406.977 286.794 406.394 286.93 405.84C287.49 404.02 289.73 404.21 289.73 404.21C289.295 403.84 289.006 403.326 288.914 402.762C288.822 402.198 288.934 401.62 289.23 401.13C290.01 399.53 292.41 400.38 292.41 400.38C291.954 399.896 291.677 399.271 291.622 398.608C291.568 397.945 291.74 397.283 292.11 396.73C292.63 395.85 294.28 395.96 294.39 395.81C298.15 390.93 306.03 381.03 325.51 385.81C340.31 389.46 344.95 403.75 344.33 416.19C344.33 416.38 345.33 416.47 345.33 417.82C345.36 418.146 345.294 418.474 345.142 418.763C344.989 419.052 344.756 419.291 344.47 419.45C344.783 419.719 344.995 420.088 345.068 420.494C345.14 420.901 345.071 421.32 344.87 421.68C344.684 422.071 344.371 422.387 343.982 422.578C343.594 422.768 343.153 422.822 342.73 422.73C342.99 423.23 344.25 424.02 343.55 425.83C343.342 426.336 342.968 426.756 342.491 427.021C342.013 427.286 341.459 427.381 340.92 427.29C341.209 427.68 341.371 428.148 341.386 428.633C341.4 429.117 341.265 429.595 341 430C340.77 430.4 339.11 430.5 338.83 430.68C354.83 438.93 379.73 438.68 384.78 440.68C401.31 447.21 381.86 463.16 367.59 458.19C366.69 457.88 368.16 456.19 369.11 456.26C385.19 457.73 392.69 446.05 383.04 443.34C376.78 441.59 352.25 441.89 337.55 433.53C336.35 432.85 335.55 434.53 335.26 434.86C327.66 442.5 311.7 444.73 301.59 439.09C288.69 431.9 287.53 420.38 287.85 414.09C287.44 413.841 287.108 413.483 286.891 413.055C286.674 412.628 286.58 412.148 286.62 411.67Z" fill="#4F4F4F"/>
<path d="M294.84 404.57C298.57 411.85 306.47 416.39 313.94 419.05C321.886 421.864 330.417 422.607 338.73 421.21C339.35 421.1 339.62 422.06 338.99 422.21C330.227 423.706 321.224 422.864 312.89 419.77C305.46 416.98 297.72 412.41 293.98 405.12C293.69 404.5 294.55 404 294.84 404.57Z" fill="black"/>
<path d="M292.29 413.19C297.672 419.171 304.389 423.8 311.894 426.7C319.4 429.6 327.484 430.689 335.49 429.88C336.13 429.81 336.12 430.8 335.49 430.88C327.352 431.688 319.138 430.571 311.511 427.618C303.885 424.665 297.061 419.958 291.59 413.88C291.16 413.42 291.86 412.72 292.29 413.19Z" fill="black"/>
<path d="M293.549 396.34L293.859 398.01C293.979 398.64 294.929 398.37 294.859 397.75C294.799 397.46 294.749 397.17 294.699 396.89C294.75 396.843 294.794 396.789 294.829 396.73C299.089 388.9 307.829 386.31 316.199 386.1C315.775 386.476 315.401 386.906 315.089 387.38C315.018 387.334 314.934 387.31 314.849 387.31C310.874 387.076 306.924 388.084 303.546 390.195C300.169 392.305 297.532 395.414 295.999 399.09C295.999 399.02 295.909 398.97 295.869 398.91C295.499 398.39 294.639 398.91 295.009 399.41C305.709 414.24 324.009 422.41 342.009 417.22C342.142 417.186 342.256 417.1 342.325 416.982C342.394 416.863 342.414 416.723 342.379 416.59C342.345 416.457 342.259 416.344 342.141 416.275C342.023 416.205 341.882 416.186 341.749 416.22C339.275 416.933 336.736 417.398 334.169 417.61C338.169 414.739 341.356 410.88 343.419 406.41C343.689 405.83 342.829 405.33 342.569 405.91C340.457 410.522 337.115 414.463 332.909 417.3C332.844 417.344 332.789 417.404 332.751 417.473C332.713 417.543 332.692 417.621 332.689 417.7C331.769 417.7 330.869 417.7 329.959 417.7C330.719 417.09 331.459 416.46 332.179 415.82C332.281 415.779 332.365 415.705 332.419 415.61C335.833 412.535 338.774 408.973 341.149 405.04C341.154 405.024 341.154 405.006 341.149 404.99C341.369 404.62 341.599 404.25 341.809 403.87C341.86 403.757 341.868 403.63 341.83 403.512C341.792 403.394 341.712 403.294 341.605 403.232C341.498 403.17 341.372 403.149 341.251 403.175C341.13 403.2 341.022 403.27 340.949 403.37L340.859 403.54C338.109 394.65 332.859 387.01 323.049 385.35C322.968 385.334 322.884 385.339 322.805 385.366C322.726 385.392 322.655 385.438 322.599 385.5C322.56 385.491 322.519 385.491 322.479 385.5C322.474 385.436 322.453 385.373 322.418 385.319C322.384 385.264 322.337 385.218 322.281 385.185C322.226 385.151 322.163 385.132 322.098 385.128C322.034 385.123 321.969 385.134 321.909 385.16C320.547 385.663 319.365 386.56 318.513 387.737C317.662 388.915 317.18 390.318 317.129 391.77C317.129 391.77 317.129 391.85 317.129 391.89C316.407 391.945 315.689 392.045 314.979 392.19C314.984 392.164 314.984 392.136 314.979 392.11C314.739 390.742 315.001 389.334 315.718 388.145C316.435 386.955 317.558 386.066 318.879 385.64C319.479 385.44 319.219 384.48 318.619 384.69C318.123 384.857 317.647 385.078 317.199 385.35C317.163 385.271 317.103 385.204 317.028 385.16C316.953 385.115 316.867 385.094 316.779 385.1C308.059 385.2 298.849 387.81 294.229 395.75C294.143 395.72 294.051 395.714 293.961 395.731C293.872 395.748 293.788 395.789 293.719 395.849C293.65 395.909 293.598 395.985 293.569 396.072C293.539 396.158 293.532 396.25 293.549 396.34ZM338.339 407.55C338.339 398.94 331.789 391.27 324.679 386.77C333.289 389.05 337.759 396.38 340.179 404.77C339.589 405.7 338.999 406.64 338.339 407.55ZM335.339 411.36C335.378 406.888 334.431 402.462 332.566 398.397C330.701 394.332 327.964 390.728 324.549 387.84C331.629 392.44 338.019 400.23 337.339 408.93C336.659 409.76 335.999 410.57 335.299 411.36H335.339ZM320.999 386.7L321.229 386.57C325.409 389.369 328.805 393.188 331.096 397.666C333.386 402.144 334.496 407.133 334.319 412.16C334.316 412.241 334.337 412.321 334.379 412.39C333.779 413.02 333.179 413.64 332.539 414.24C332.783 409.081 331.874 403.932 329.877 399.168C327.881 394.404 324.848 390.145 320.999 386.7ZM325.369 417.38C325.941 408.154 323.529 398.989 318.489 391.24C318.422 391.13 318.314 391.051 318.189 391.02C318.278 390.442 318.45 389.879 318.699 389.35C324.505 396.359 327.54 405.254 327.229 414.35C327.229 414.483 327.282 414.61 327.376 414.704C327.47 414.797 327.597 414.85 327.729 414.85C327.862 414.85 327.989 414.797 328.083 414.704C328.177 414.61 328.229 414.483 328.229 414.35C328.549 404.931 325.379 395.726 319.329 388.5L319.209 388.41C319.496 387.992 319.832 387.609 320.209 387.27C324.114 390.727 327.166 395.041 329.124 399.875C331.083 404.708 331.896 409.93 331.499 415.13C330.679 415.86 329.839 416.58 328.959 417.25C328.897 417.298 328.846 417.36 328.811 417.431C328.776 417.503 328.759 417.581 328.759 417.66H328.189C328.189 417.17 328.189 416.66 328.189 416.18C328.189 415.7 327.189 415.55 327.189 416.18C327.189 416.65 327.189 417.12 327.139 417.58C326.559 417.53 325.999 417.47 325.349 417.38H325.369ZM323.849 407.79C323.929 408.29 323.999 408.79 324.069 409.3C321.062 408.396 318.251 406.938 315.779 405C315.754 404.935 315.712 404.878 315.658 404.834C315.603 404.79 315.538 404.761 315.469 404.75C312.555 402.387 310.199 399.41 308.569 396.03C309.144 395.601 309.749 395.213 310.379 394.87C313.301 400.553 318.034 405.099 323.829 407.79H323.849ZM311.289 394.42C312.332 393.921 313.425 393.536 314.549 393.27C313.658 394.446 313.133 395.858 313.039 397.33C312.384 396.401 311.792 395.429 311.269 394.42H311.289ZM306.999 397.42C307.259 397.16 307.529 396.9 307.819 396.65C308.039 397.12 308.289 397.58 308.539 398.02C308.475 398.062 308.423 398.121 308.389 398.19C307.668 399.427 307.351 400.858 307.484 402.284C307.616 403.709 308.192 405.058 309.129 406.14C308.687 406.592 308.186 406.982 307.639 407.3C306.726 405.885 306.185 404.262 306.066 402.582C305.947 400.902 306.254 399.219 306.959 397.69C306.994 397.608 307.008 397.519 306.999 397.43V397.42ZM309.109 398.96C309.749 399.99 310.457 400.976 311.229 401.91C311.156 401.975 311.107 402.063 311.089 402.16C310.908 403.317 310.46 404.416 309.779 405.37C309.051 404.493 308.598 403.422 308.475 402.289C308.352 401.156 308.566 400.012 309.089 399L309.109 398.96ZM322.959 403.65C323.219 404.65 323.459 405.6 323.659 406.58C322.703 406.1 321.775 405.566 320.879 404.98C320.921 404.942 320.952 404.893 320.969 404.84C321.127 404.457 321.404 404.136 321.759 403.923C322.114 403.71 322.528 403.618 322.939 403.66L322.959 403.65ZM320.079 404.45C319.093 403.768 318.154 403.019 317.269 402.21V402.15C317.522 401.247 318.024 400.434 318.717 399.803C319.41 399.171 320.267 398.748 321.189 398.58C321.744 399.915 322.231 401.276 322.649 402.66C322.09 402.678 321.548 402.858 321.088 403.177C320.629 403.496 320.271 403.942 320.059 404.46L320.079 404.45ZM315.529 400.45C315.716 399.329 316.236 398.291 317.024 397.472C317.811 396.653 318.827 396.091 319.939 395.86C320.229 396.45 320.519 397.04 320.789 397.65C319.798 397.862 318.878 398.324 318.117 398.993C317.355 399.662 316.778 400.515 316.439 401.47C316.129 401.15 315.819 400.82 315.509 400.48L315.529 400.45ZM320.529 416.32C322.156 415.755 323.535 414.641 324.429 413.17C324.483 414.503 324.483 415.837 324.429 417.17C323.106 416.965 321.794 416.691 320.499 416.35L320.529 416.32ZM315.829 414.73C316.925 414.091 317.838 413.18 318.479 412.085C319.12 410.99 319.468 409.749 319.489 408.48C320.916 409.207 322.405 409.802 323.939 410.26C324.03 410.29 324.129 410.29 324.219 410.26C324.269 410.69 324.299 411.12 324.339 411.55C324.27 411.56 324.205 411.588 324.15 411.632C324.096 411.676 324.054 411.734 324.029 411.8C323.634 412.741 323.022 413.576 322.244 414.236C321.466 414.896 320.542 415.364 319.549 415.6C319.463 415.616 319.384 415.658 319.323 415.721C319.262 415.783 319.223 415.864 319.209 415.95C317.999 415.62 316.909 415.21 315.799 414.76L315.829 414.73ZM310.189 412C311.561 411.637 312.803 410.895 313.772 409.858C314.741 408.822 315.399 407.533 315.669 406.14C316.559 406.806 317.491 407.414 318.459 407.96C318.538 409.238 318.234 410.511 317.585 411.615C316.937 412.72 315.974 413.606 314.819 414.16C314.762 414.186 314.711 414.223 314.669 414.27C313.133 413.602 311.637 412.844 310.189 412ZM307.719 410.44C310.789 409.91 312.419 407.15 313.629 404.44C314.009 404.78 314.389 405.11 314.789 405.44C314.618 406.853 313.995 408.173 313.013 409.204C312.031 410.234 310.743 410.921 309.339 411.16C309.237 411.176 309.145 411.23 309.079 411.31C308.619 411.06 308.169 410.75 307.719 410.45V410.44ZM305.819 409.09C307.344 408.739 308.734 407.954 309.824 406.831C310.913 405.708 311.655 404.294 311.959 402.76C312.259 403.09 312.559 403.42 312.879 403.76C311.759 406.3 310.279 409.29 307.169 409.55C307.087 409.557 307.007 409.586 306.939 409.633C306.87 409.681 306.815 409.745 306.779 409.82C306.449 409.57 306.139 409.33 305.819 409.1V409.09ZM303.549 402.4C304.059 401.329 304.661 400.305 305.349 399.34C305.005 400.763 304.949 402.24 305.186 403.685C305.423 405.13 305.948 406.512 306.729 407.75C306.197 407.974 305.64 408.135 305.069 408.23C304.473 407.471 304.039 406.597 303.797 405.662C303.554 404.728 303.507 403.753 303.659 402.8C303.672 402.731 303.669 402.66 303.65 402.592C303.631 402.525 303.596 402.462 303.549 402.41V402.4ZM302.049 405.95C302.239 405.46 302.429 404.95 302.629 404.49C302.681 405.351 302.88 406.197 303.219 406.99C302.819 406.66 302.429 406.32 302.049 406V405.95ZM299.179 403.04C299.265 402.981 299.326 402.892 299.349 402.79C300.327 399.474 302.22 396.502 304.811 394.214C307.403 391.927 310.588 390.418 313.999 389.86C313.854 390.69 313.854 391.54 313.999 392.37C311.766 392.947 309.671 393.967 307.839 395.37C304.479 397.92 302.729 401.43 301.249 405.25C300.549 404.53 299.859 403.79 299.179 403.05V403.04ZM314.539 388.28C314.459 388.46 314.379 388.64 314.309 388.82H314.209C310.582 389.338 307.178 390.877 304.394 393.259C301.61 395.641 299.562 398.767 298.489 402.27C297.849 401.52 297.229 400.75 296.629 399.97C296.652 399.944 296.669 399.913 296.679 399.88C298.065 396.319 300.535 393.285 303.74 391.205C306.945 389.125 310.723 388.105 314.539 388.29V388.28ZM316.109 392.96C316.825 392.858 317.547 392.801 318.269 392.79C318.699 393.5 319.109 394.23 319.499 394.96C318.365 395.233 317.323 395.803 316.482 396.611C315.64 397.42 315.028 398.437 314.709 399.56C314.469 399.28 314.249 399 314.029 398.71C313.899 397.662 314.02 396.597 314.381 395.604C314.743 394.612 315.335 393.719 316.109 393V392.96Z" fill="black"/>
<path d="M290.49 428.1C290.54 428.73 291.49 428.73 291.49 428.1C291.226 425.115 291.801 422.116 293.15 419.44C293.48 419.8 293.82 420.16 294.15 420.5C293.162 422.17 292.528 424.024 292.285 425.949C292.043 427.874 292.197 429.827 292.74 431.69C292.774 431.816 292.857 431.923 292.971 431.988C293.084 432.052 293.219 432.069 293.345 432.035C293.471 432.001 293.578 431.917 293.642 431.804C293.707 431.691 293.724 431.556 293.69 431.43C293.194 429.735 293.044 427.958 293.248 426.204C293.453 424.45 294.008 422.755 294.88 421.22C295.46 421.78 296.05 422.33 296.66 422.85C295.367 424.899 294.717 427.289 294.794 429.711C294.87 432.133 295.67 434.476 297.09 436.44C297.46 436.96 298.31 436.44 297.95 435.94C296.637 434.155 295.886 432.019 295.792 429.806C295.698 427.592 296.264 425.4 297.42 423.51C297.98 423.98 298.54 424.42 299.12 424.86C299.036 424.874 298.957 424.911 298.893 424.968C298.83 425.024 298.783 425.098 298.76 425.18C298.085 427.201 297.884 429.349 298.174 431.46C298.464 433.57 299.235 435.586 300.43 437.35C300.492 437.437 300.58 437.502 300.681 437.537C300.782 437.571 300.892 437.574 300.994 437.545C301.097 437.515 301.188 437.455 301.255 437.372C301.323 437.289 301.363 437.187 301.37 437.08C305.717 436.688 309.831 434.939 313.13 432.08C313.99 432.34 314.85 432.59 315.73 432.8C314.142 434.476 312.224 435.803 310.096 436.698C307.968 437.594 305.678 438.037 303.37 438C303.237 438 303.11 438.053 303.016 438.146C302.922 438.24 302.87 438.367 302.87 438.5C302.87 438.633 302.922 438.76 303.016 438.854C303.11 438.947 303.237 439 303.37 439C305.852 439.039 308.314 438.555 310.597 437.58C312.88 436.605 314.932 435.16 316.62 433.34C316.688 433.262 316.73 433.164 316.74 433.06C317.33 433.19 317.92 433.3 318.52 433.41C317.098 436.682 314.702 439.437 311.66 441.3C311.547 441.366 311.465 441.475 311.432 441.601C311.4 441.728 311.418 441.862 311.485 441.975C311.551 442.088 311.659 442.169 311.786 442.202C311.913 442.235 312.047 442.216 312.16 442.15C315.38 440.195 317.914 437.288 319.41 433.83C319.434 433.742 319.434 433.648 319.41 433.56C320.05 433.66 320.7 433.74 321.35 433.82C320.519 436.728 318.999 439.394 316.92 441.59C316.48 442.05 317.18 442.75 317.62 442.29C319.857 439.932 321.481 437.062 322.35 433.93L323.27 434C322.797 436.774 321.418 439.313 319.35 441.22C318.88 441.66 319.58 442.36 320.05 441.92C322.302 439.852 323.786 437.081 324.26 434.06L325.94 434.12C325.401 436.617 324.219 438.931 322.51 440.83C322.08 441.3 322.78 442 323.21 441.53C325.096 439.433 326.39 436.872 326.96 434.11C327.833 434.11 328.703 434.08 329.57 434.02C329.418 436.046 328.477 437.931 326.95 439.27C326.48 439.7 327.18 440.39 327.65 439.97C329.371 438.43 330.42 436.275 330.57 433.97L331.63 433.87C332.26 433.8 332.27 432.81 331.63 432.87C324.512 433.679 317.303 432.765 310.613 430.203C303.922 427.641 297.947 423.507 293.19 418.15C292.8 417.71 292.19 418.27 292.43 418.73C292.388 418.763 292.354 418.804 292.33 418.85C290.856 421.698 290.218 424.905 290.49 428.1ZM306.88 434.74C306.054 433.008 305.765 431.068 306.05 429.17C307.987 430.149 309.992 430.988 312.05 431.68C310.499 432.96 308.763 433.995 306.9 434.75L306.88 434.74ZM303.73 435.74C302.677 433.106 302.393 430.229 302.91 427.44C303.64 427.89 304.39 428.32 305.14 428.73V428.81C304.786 430.948 305.082 433.142 305.99 435.11C305.248 435.355 304.494 435.559 303.73 435.72V435.74ZM299.73 425.46C299.734 425.417 299.734 425.373 299.73 425.33C300.49 425.88 301.26 426.42 302.06 426.92C302.006 426.983 301.968 427.059 301.95 427.14C301.381 430.085 301.651 433.131 302.73 435.93C302.26 436.01 301.79 436.07 301.31 436.12C301.237 436.126 301.166 436.148 301.102 436.185C301.038 436.221 300.983 436.27 300.94 436.33C299.951 434.715 299.33 432.902 299.119 431.021C298.908 429.139 299.113 427.234 299.72 425.44L299.73 425.46Z" fill="black"/>
<path d="M313.53 424.2C321.99 428.15 331.38 427.41 340.42 426.6C341.06 426.54 341.05 427.53 340.42 427.6C331.17 428.43 321.68 429.1 313.03 425.06C312.45 424.79 313 423.93 313.53 424.2Z" fill="black"/>
<path d="M340.62 419.001L344.37 418.581C345.01 418.511 345 419.501 344.37 419.581L340.62 420.001C340 420.101 340 419.111 340.62 419.001Z" fill="black"/>
<path d="M289.83 404.2C293.252 411.955 299.578 418.058 307.45 421.2C308.04 421.43 307.78 422.39 307.19 422.15C299.075 418.942 292.543 412.676 289 404.7C288.72 404.13 289.57 403.62 289.83 404.2Z" fill="black"/>
<path d="M292.999 399.61C298.903 407.302 306.6 413.431 315.42 417.46C316 417.73 315.5 418.58 314.92 418.32C305.955 414.203 298.137 407.95 292.149 400.11C291.719 399.6 292.579 399.11 292.999 399.61Z" fill="black"/>
<path d="M317.05 418.08C317.182 418.08 317.31 418.133 317.403 418.227C317.497 418.32 317.55 418.447 317.55 418.58C317.55 418.713 317.497 418.84 317.403 418.934C317.31 419.027 317.182 419.08 317.05 419.08C316.917 419.08 316.79 419.027 316.696 418.934C316.602 418.84 316.55 418.713 316.55 418.58C316.55 418.447 316.602 418.32 316.696 418.227C316.79 418.133 316.917 418.08 317.05 418.08Z" fill="black"/>
<path d="M316.1 422C324.627 424.807 333.774 425.153 342.49 423C343.11 422.85 343.38 423.8 342.76 423.95C333.871 426.154 324.541 425.807 315.84 422.95C315.24 422.74 315.5 421.78 316.1 422Z" fill="black"/>
<path d="M311.109 423.23C311.242 423.23 311.369 423.283 311.463 423.377C311.557 423.471 311.609 423.598 311.609 423.73C311.609 423.863 311.557 423.99 311.463 424.084C311.369 424.178 311.242 424.23 311.109 424.23C310.977 424.23 310.85 424.178 310.756 424.084C310.662 423.99 310.609 423.863 310.609 423.73C310.609 423.598 310.662 423.471 310.756 423.377C310.85 423.283 310.977 423.23 311.109 423.23Z" fill="black"/>
<path d="M288.679 414.681C288.505 414.359 288.355 414.024 288.229 413.681C288.009 413.081 288.959 412.821 289.179 413.421C289.674 414.795 290.587 415.981 291.789 416.811C292.309 417.171 291.789 418.031 291.289 417.671L290.979 417.431C290.072 419.455 289.726 421.687 289.979 423.891C290.049 424.521 289.059 424.521 288.979 423.891C288.731 421.443 289.167 418.975 290.239 416.761C289.918 416.453 289.623 416.119 289.359 415.761C289.088 416.552 288.92 417.376 288.859 418.211C288.809 418.851 287.859 418.851 287.859 418.211C287.936 416.997 288.213 415.804 288.679 414.681Z" fill="black"/>
<path d="M333.459 432.59L336.009 432.21C336.089 432.2 336.171 432.208 336.247 432.234C336.323 432.26 336.392 432.303 336.449 432.36C336.624 431.892 336.902 431.469 337.262 431.123C337.622 430.777 338.055 430.516 338.529 430.36C339.129 430.16 339.389 431.12 338.789 431.36C338.376 431.499 338.011 431.754 337.738 432.095C337.465 432.435 337.296 432.846 337.249 433.28C337.189 433.91 336.199 433.91 336.249 433.28L333.709 433.65C333.099 433.63 332.829 432.68 333.459 432.59Z" fill="black"/>
</svg>
