<svg width="41" height="40" viewBox="0 0 41 40" fill="none" xmlns="http://www.w3.org/2000/svg">
<circle cx="20.75" cy="19.998" r="20" fill="#E26060"/>
<path d="M20.75 -0.00195312C9.72177 -0.00195312 0.75 8.97022 0.75 19.998C0.75 31.0269 9.72165 39.998 20.75 39.998C31.7773 39.998 40.75 31.0259 40.75 19.998C40.75 8.97022 31.7774 -0.00195312 20.75 -0.00195312ZM20.75 38.9793C10.284 38.9793 1.76869 30.4646 1.76869 19.998C1.76869 9.53175 10.2838 1.01679 20.75 1.01679C31.2162 1.01679 39.7313 9.53152 39.7313 19.998C39.7313 30.4643 31.2162 38.9793 20.75 38.9793Z" fill="black"/>
<path d="M20.7514 7.64551C17.452 7.64551 14.3501 8.93029 12.0171 11.2629C9.68414 13.596 8.3999 16.6978 8.3999 19.9977C8.3999 23.2973 9.68461 26.3994 12.0171 28.7325C14.3501 31.0656 17.4517 32.3508 20.7514 32.3508C24.0508 32.3508 27.1519 31.0651 29.4848 28.7325C31.8178 26.3994 33.103 23.2976 33.103 19.9977C33.103 16.6981 31.8173 13.596 29.4848 11.2629C27.1528 8.92983 24.0512 7.64551 20.7514 7.64551ZM29.1069 12.3613C30.8864 14.3051 31.9165 16.7615 32.0552 19.3897C28.6917 18.2049 24.8743 19.0209 22.3249 21.5709C19.7751 24.1196 18.9614 27.9389 20.1439 31.3017C17.5158 31.163 15.0595 30.1343 13.1159 28.3533L29.1069 12.3613ZM12.7369 11.9834C14.7643 9.95589 17.4279 8.80384 20.2761 8.68788C21.5158 11.7646 20.8169 15.3443 18.4566 17.7046C16.0972 20.065 12.5177 20.765 9.43943 19.5243C9.55857 16.6754 10.71 14.0113 12.7369 11.9834ZM9.44851 20.6263C10.4517 20.9787 11.4959 21.1593 12.536 21.1593C14.9768 21.1593 17.3911 20.2111 19.1779 18.4242C21.7278 15.8742 22.5428 12.0552 21.359 8.69336C23.9871 8.83207 26.4443 9.86078 28.3861 11.6404L12.3944 27.6329C10.6195 25.695 9.59078 23.2459 9.44793 20.6258L9.44851 20.6263ZM28.764 28.0122C26.7366 30.0407 24.0739 31.1918 21.2257 31.309C19.986 28.2314 20.685 24.6504 23.0438 22.2913C25.4023 19.9318 28.9836 19.2319 32.061 20.4717C31.9432 23.321 30.7922 25.9838 28.764 28.0122Z" fill="black"/>
</svg>
