<svg width="48" height="42" viewBox="0 0 48 42" fill="none" xmlns="http://www.w3.org/2000/svg">
<path d="M44.3079 31.898V36.9384C44.2894 39.5475 41.8268 41.915 38.8434 41.9671C28.9595 42.0241 19.0734 41.9956 9.19002 41.9671C4.46393 41.9266 0.0683513 38.2231 0.0222519 33.6291C-0.00741731 25.2022 -0.00741731 16.7767 0.0222519 8.35005C0.064695 4.05852 4.13881 0.0539558 9.19002 0.0104936C17.8221 -0.013117 26.4546 0.0104936 35.0869 0.0104936C37.9669 0.0273584 40.5992 2.29893 40.6178 5.04078V7.0387C42.6963 7.75227 44.2935 9.59769 44.3083 11.7534V13.4373C44.2881 13.8889 44.3397 19.5674 44.207 19.7923C43.6808 20.6753 42.4387 20.5371 41.2599 20.1494C40.081 20.1494 41.1737 11.7497 40.1859 10.6786C39.839 10.3042 39.309 10.0842 38.7663 10.0808H9.24796C7.92975 10.0306 6.93129 8.55966 7.70474 7.48328C7.98166 7.09726 8.44318 6.8233 8.94552 6.74609C9.07862 6.72585 9.11365 6.72923 9.2484 6.72436C18.4771 6.72436 27.704 6.67563 36.9302 6.71424C36.9318 6.15169 36.9318 5.58767 36.9285 5.02516C36.91 4.15868 36.1032 3.38473 35.1064 3.36794C26.4631 3.31922 17.8218 3.29411 9.17997 3.36794C6.34618 3.40841 3.75997 5.62634 3.71387 8.33932C3.62692 16.7715 3.62692 25.2051 3.71387 33.6385C3.75838 36.2072 6.18752 38.568 9.17997 38.6099C19.0528 38.6938 28.9257 38.6669 38.7965 38.6099C39.7582 38.593 40.6112 37.8427 40.6186 36.926V31.9006C38.1428 31.9021 35.6675 31.904 33.1918 31.8972C30.2641 31.8721 27.4653 30.1358 26.3836 27.6779C25.191 24.963 26.2155 21.5814 28.8095 19.8136C30.063 18.9591 31.621 18.4839 33.1923 18.4719L46.1539 18.4704C46.1926 18.4719 46.2314 18.4738 46.2701 18.4738C46.6245 18.5057 46.6818 18.5341 46.833 18.5896C47.4441 18.8096 47.9019 19.3418 47.9852 19.9395C47.9979 20.0317 47.9963 20.0553 48 20.1494V30.2186C47.9889 30.5428 47.9592 30.5964 47.9093 30.7373C47.6951 31.3384 47.0802 31.805 46.3863 31.8841C46.2828 31.8957 46.2569 31.8942 46.1539 31.8976H44.3095L44.3079 31.898ZM44.3079 21.8288H33.2388C31.0218 21.8337 29.0888 23.9478 29.6575 26.0027C30.0527 27.4347 31.5773 28.5362 33.2388 28.5414H44.3079V21.8288Z" fill="#403128"/>
</svg>
