<svg width="41" height="40" viewBox="0 0 41 40" fill="none" xmlns="http://www.w3.org/2000/svg">
<circle cx="20.5" cy="19.998" r="20" fill="#9FC699"/>
<path d="M20.5 -0.00195312C9.47177 -0.00195312 0.5 8.97022 0.5 19.998C0.5 31.0269 9.47165 39.998 20.5 39.998C31.5273 39.998 40.5 31.0259 40.5 19.998C40.5 8.97022 31.5274 -0.00195312 20.5 -0.00195312ZM20.5 38.9793C10.034 38.9793 1.51869 30.4646 1.51869 19.998C1.51869 9.53175 10.0338 1.01679 20.5 1.01679C30.9662 1.01679 39.4813 9.53152 39.4813 19.998C39.4813 30.4643 30.9662 38.9793 20.5 38.9793Z" fill="black"/>
<path d="M31.2376 22.7285C31.2376 17.376 27.2983 12.9395 22.1694 12.1326C22.3995 11.8025 22.5368 11.4031 22.5368 10.9711C22.5368 9.84729 21.6232 8.93359 20.4995 8.93359C19.3757 8.93359 18.4621 9.84729 18.4621 10.9711C18.4621 11.4031 18.5994 11.8025 18.83 12.1335C13.7011 12.9404 9.76185 17.3769 9.76185 22.7294C9.76185 22.97 9.78822 23.2101 9.8046 23.4507H7.59713L7.59668 26.5916H33.4026V23.4507H31.1942C31.2115 23.2092 31.2379 22.97 31.2379 22.7285H31.2376ZM19.4813 10.9716C19.4813 10.4104 19.9388 9.95288 20.5 9.95288C21.0612 9.95288 21.5187 10.4095 21.5187 10.9716C21.5187 11.5337 21.0612 11.9904 20.5 11.9904C19.9388 11.9904 19.4813 11.5328 19.4813 10.9716ZM10.7807 22.7285C10.7807 17.3688 15.1406 13.0077 20.5 13.0077C25.8595 13.0077 30.2193 17.3678 30.2193 22.7285C30.2193 22.97 30.1948 23.2106 30.1766 23.4498H10.8239C10.8057 23.2092 10.7811 22.9677 10.7811 22.7285H10.7807ZM32.3838 25.5729H8.61529V24.4695H32.3838V25.5729Z" fill="black"/>
</svg>
