<svg width="48" height="48" viewBox="0 0 48 48" fill="none" xmlns="http://www.w3.org/2000/svg">
<path d="M45.84 18.3089C45.1108 16.0913 43.5315 14.2538 41.4488 13.1995C39.3661 12.1453 36.9502 11.9606 34.7314 12.686C33.9394 12.9104 33.1875 13.2575 32.5029 13.7146C32.7245 12.9219 32.8397 12.1033 32.8457 11.2803C32.8457 8.93426 31.9138 6.68431 30.2549 5.02542C28.596 3.36653 26.346 2.43457 24 2.43457C21.654 2.43457 19.404 3.36653 17.7451 5.02542C16.0862 6.68431 15.1543 8.93426 15.1543 11.2803C15.1602 12.1033 15.2755 12.9219 15.4971 13.7146C14.8147 13.2455 14.0626 12.8868 13.2686 12.6517C12.1722 12.2938 11.0161 12.1553 9.86623 12.2441C8.71635 12.333 7.59524 12.6475 6.56689 13.1696C5.53855 13.6917 4.62312 14.4113 3.87287 15.2872C3.12261 16.1631 2.55223 17.1782 2.19428 18.2746C1.83634 19.3709 1.69784 20.527 1.78669 21.6769C1.87555 22.8268 2.19002 23.9479 2.71215 24.9762C3.23428 26.0046 3.95385 26.92 4.82976 27.6703C5.70568 28.4205 6.72079 28.9909 7.81714 29.3489C8.62018 29.586 9.44917 29.7241 10.2857 29.7603C9.64669 30.2728 9.07119 30.8598 8.57143 31.5089C7.88881 32.4382 7.39755 33.4938 7.12614 34.6145C6.85474 35.7352 6.8086 36.8986 6.99041 38.0373C7.17221 39.176 7.57834 40.2672 8.18522 41.2477C8.7921 42.2281 9.58765 43.0783 10.5257 43.7489C12.4213 45.1187 14.7808 45.6854 17.0918 45.326C19.4028 44.9665 21.4786 43.7098 22.8686 41.8289C23.3509 41.1566 23.7321 40.4173 24 39.6346C24.2786 40.4193 24.6714 41.1587 25.1657 41.8289C26.5556 43.7098 28.6315 44.9665 30.9425 45.326C33.2535 45.6854 35.613 45.1187 37.5086 43.7489C38.4466 43.0783 39.2422 42.2281 39.8491 41.2477C40.4559 40.2672 40.8621 39.176 41.0439 38.0373C41.2257 36.8986 41.1795 35.7352 40.9081 34.6145C40.6367 33.4938 40.1455 32.4382 39.4629 31.5089C38.9631 30.8598 38.3876 30.2728 37.7486 29.7603C38.5736 29.7214 39.3909 29.5832 40.1829 29.3489C41.2814 28.9987 42.2998 28.4347 43.1795 27.6894C44.0592 26.9441 44.7828 26.0321 45.3086 25.006C45.8344 23.9799 46.152 22.8599 46.2432 21.7105C46.3344 20.5611 46.1974 19.4051 45.84 18.3089Z" fill="#403128" stroke="#403128" stroke-width="3.42857" stroke-linecap="round" stroke-linejoin="round"/>
</svg>
