<svg width="41" height="41" viewBox="0 0 41 41" fill="none" xmlns="http://www.w3.org/2000/svg">
<circle cx="20.5" cy="20.748" r="20" fill="#758FD1"/>
<path d="M20.5 0.748047C9.47177 0.748047 0.5 9.72022 0.5 20.748C0.5 31.7769 9.47165 40.748 20.5 40.748C31.5273 40.748 40.5 31.7759 40.5 20.748C40.5 9.72022 31.5274 0.748047 20.5 0.748047ZM20.5 39.7293C10.034 39.7293 1.51869 31.2146 1.51869 20.748C1.51869 10.2818 10.0338 1.76679 20.5 1.76679C30.9662 1.76679 39.4813 10.2815 39.4813 20.748C39.4813 31.2143 30.9662 39.7293 20.5 39.7293Z" fill="black"/>
<path d="M15.106 22.3883H19.5741V17.9199H15.106V22.3883ZM16.1246 18.9387H18.5554V21.3696H16.1246V18.9387Z" fill="black"/>
<path d="M25.8948 17.9189H21.4258V22.3873H25.8948V17.9189ZM24.8762 21.3686H22.4445V18.9377H24.8762V21.3686Z" fill="black"/>
<path d="M24.3515 9.00488H16.6472V15.6909H12.4351V30.1734H28.5652L28.5648 15.6897H24.3514L24.3515 9.00488ZM17.6659 10.0236H23.3328V15.6909H17.6659V10.0236ZM18.7123 29.1539V24.7692H22.2891V29.1539H18.7123ZM27.5462 16.7089V29.1539H23.3073V23.7505H17.6931V29.1539H13.4533L13.4538 16.7089H27.5462Z" fill="black"/>
<path d="M21.0101 11.376H19.9914V12.347H19.0205V13.3657H19.9914V14.3362H21.0101V13.3657H21.9811V12.347H21.0101V11.376Z" fill="black"/>
</svg>
