<svg width="41" height="40" viewBox="0 0 41 40" fill="none" xmlns="http://www.w3.org/2000/svg">
<circle cx="20.5" cy="19.998" r="20" fill="#E2BD5D"/>
<path d="M20.5 -0.00195312C9.47177 -0.00195312 0.5 8.97022 0.5 19.998C0.5 31.0269 9.47165 39.998 20.5 39.998C31.5273 39.998 40.5 31.0259 40.5 19.998C40.5 8.97022 31.5274 -0.00195312 20.5 -0.00195312ZM20.5 38.9793C10.034 38.9793 1.51869 30.4646 1.51869 19.998C1.51869 9.53175 10.0338 1.01679 20.5 1.01679C30.9662 1.01679 39.4813 9.53152 39.4813 19.998C39.4813 30.4643 30.9662 38.9793 20.5 38.9793Z" fill="black"/>
<path d="M26.4742 11.9263C26.3683 10.8271 25.2714 9.99805 23.9216 9.99805C22.5791 9.99805 21.1048 10.8058 20.3289 12.9097C19.5526 10.8058 18.0787 9.99805 16.7363 9.99805C15.3856 9.99805 14.2883 10.8271 14.1836 11.9263C14.1245 12.5458 14.3505 13.8383 16.7912 14.9153H11.5V20.0936H13.6647V30.9606H26.9926L26.9922 20.0927H29.1569V14.9143H23.8657C26.3069 13.8383 26.5329 12.5457 26.4738 11.9263H26.4742ZM23.9211 11.0167C24.7156 11.0167 25.4064 11.4679 25.4591 12.0232C25.5224 12.6754 24.6096 13.9488 20.9106 14.782C21.3103 12.0209 22.6937 11.0167 23.9211 11.0167ZM15.1964 12.0232C15.2491 11.4679 15.9399 11.0167 16.7358 11.0167C17.9623 11.0167 19.3467 12.0214 19.7459 14.782C16.0468 13.9484 15.1341 12.6748 15.1964 12.0232ZM12.5182 19.074V15.9331H19.7773L19.7682 16.0504L19.8192 16.0404V19.0744H13.6643L12.5182 19.074ZM14.683 20.0927H19.8191V29.9409H14.683V20.0927ZM25.974 29.9409H20.8378V20.0927H25.974V29.9409ZM28.1387 19.074H20.8378V16.04L20.8887 16.05L20.8796 15.9326H28.1387L28.1387 19.074Z" fill="black"/>
</svg>
