<svg width="48" height="46" viewBox="0 0 48 46" fill="none" xmlns="http://www.w3.org/2000/svg">
<path d="M24.0001 7.51486C15.494 -7.8829 -3.14564 2.44908 0.45644 19.898C3.9789 36.9714 24.0001 46 24.0001 46C24.0001 46 44.0201 36.971 47.5437 19.898C51.1453 2.44867 32.5044 -7.88392 24.0001 7.51486ZM25.1538 14.6282C25.2809 13.3828 25.8404 12.2453 26.6516 11.5851C27.2047 11.135 27.8316 10.9317 28.4589 10.9983C30.0604 11.1651 31.1831 13.0647 30.962 15.2325C30.8349 16.4779 30.2754 17.6154 29.4641 18.2756C28.9792 18.6703 28.4391 18.8749 27.8888 18.8749C27.8114 18.8749 27.7343 18.8709 27.6569 18.8624C26.0554 18.6956 24.9327 16.796 25.1538 14.6282ZM19.5417 10.9982C20.1722 10.9317 20.7962 11.1354 21.3489 11.585C22.1602 12.2448 22.72 13.3827 22.8467 14.6281C23.0678 16.796 21.9451 18.6956 20.3437 18.8624C20.2662 18.8704 20.1888 18.8748 20.1117 18.8748C19.5615 18.8748 19.0213 18.6703 18.5364 18.276C17.7256 17.6158 17.1653 16.4783 17.0382 15.2329C16.8175 13.0651 17.9406 11.1651 19.5417 10.9982ZM13.9494 23.0302C13.6884 23.0302 13.4185 22.9869 13.145 22.8998C12.1986 22.5982 11.3111 21.7864 10.7702 20.728C9.82662 18.881 10.1695 16.7969 11.5346 16.083C12.0752 15.7998 12.704 15.7601 13.3539 15.967C14.2999 16.2683 15.1878 17.0805 15.7291 18.1389C16.6723 19.9859 16.3294 22.0696 14.9647 22.7843C14.6517 22.948 14.3092 23.0302 13.9494 23.0302ZM32.7777 31.425C32.4368 32.97 31.3347 34.1885 29.7534 34.7681C29.3008 34.9342 28.8308 35.0148 28.3628 35.0148C27.2083 35.0148 26.0655 34.5251 25.2236 33.6186C24.9037 33.2748 24.4693 33.0855 23.9997 33.0855C23.5301 33.0855 23.0956 33.2748 22.7757 33.619C21.5921 34.8928 19.8135 35.3433 18.2455 34.7685C16.6642 34.1889 15.5621 32.9704 15.2212 31.4253C14.8897 29.9201 15.3406 28.3715 16.4286 27.2829L19.8611 23.4219C20.912 22.2411 22.4198 21.5636 23.9996 21.5636C25.5793 21.5636 27.0871 22.2407 28.1376 23.4215L31.5822 27.2949C32.6581 28.3714 33.1097 29.92 32.7777 31.425ZM37.2291 20.7279C36.6886 21.7864 35.8007 22.5982 34.8543 22.8998C34.5808 22.9868 34.311 23.0301 34.0499 23.0301C33.6905 23.0301 33.3476 22.9479 33.0346 22.7843C31.6699 22.0695 31.327 19.9858 32.2701 18.1389C32.8111 17.0803 33.699 16.2681 34.6454 15.967C35.2953 15.76 35.9242 15.7997 36.4647 16.0829C37.8298 16.7972 38.1727 18.8809 37.2291 20.7279Z" fill="#403128"/>
</svg>
