<svg width="75" height="67" viewBox="0 0 75 67" fill="none" xmlns="http://www.w3.org/2000/svg">
<path d="M25.1689 0.0554023C29.5088 -0.570692 33.8769 4.18026 34.9152 10.7358C35.9551 17.2546 33.3327 23.0736 28.9912 23.7365C24.6863 24.3994 20.2817 19.6485 19.2068 13.0929C18.1303 6.57415 20.8259 0.755155 25.1689 0.0554023ZM51.3051 0.0554023C55.6254 0.755155 57.7916 6.57415 56.2361 13.0929C54.5694 19.6485 49.799 24.3994 45.5137 23.7365C41.1918 23.0736 39.0622 17.2546 40.6908 10.7358C42.2843 4.18026 47.0548 -0.570692 51.3051 0.0554023ZM4.89503 16.9968C9.13862 15.1922 14.6657 18.4699 17.3848 24.1785C19.9165 29.9974 18.7072 36.1111 14.5002 37.9157C10.2931 39.7203 4.80106 36.4794 2.15815 30.6972C-0.484761 24.915 0.799214 18.7646 4.89503 16.9968ZM70.6924 16.9968C74.6385 18.7646 75.4016 24.915 72.2689 30.6972C69.1363 36.4794 63.3697 39.7203 59.3155 37.9157C55.2613 36.1111 54.5698 29.9974 57.5944 24.1785C60.797 18.4699 66.6017 15.1922 70.6924 16.9968ZM62.9066 56.6985C62.9062 60.1605 60.1121 63.9907 56.9076 65.427C50.2365 68.447 42.7522 62.1861 35.4779 62.1861C28.2037 62.1861 20.105 68.7048 13.8103 65.427C10.2313 63.6224 7.91186 58.8346 8.55551 54.8571C9.44587 49.3695 16.1138 46.4232 20.1586 42.4088C25.5326 37.2159 29.6013 27.4562 36.9487 27.4562C44.2595 27.4562 47.7272 37.0686 52.4358 42.4088C56.3031 46.902 62.9049 50.6954 62.9066 56.6985Z" fill="#403128"/>
</svg>
