<svg width="73" height="69" viewBox="0 0 73 69" fill="none" xmlns="http://www.w3.org/2000/svg">
<path d="M22.7778 0.0568259C26.9649 -0.585356 31.5579 4.28767 33.0315 11.0117C34.504 17.6979 32.3567 23.6665 28.1707 24.3464C24.0203 25.0264 19.3917 20.1533 17.8825 13.4293C16.3743 6.74307 18.5928 0.774559 22.7778 0.0568259ZM48.2593 0.0568259C52.5206 0.774559 55.0419 6.74307 53.9841 13.4293C52.8205 20.1533 48.5038 25.0264 44.2792 24.3464C40.019 23.6665 37.5333 17.6979 38.6624 11.0117C39.7547 4.28767 44.0714 -0.585356 48.2593 0.0568259ZM4.20392 17.4335C8.21422 15.5825 13.8335 18.9445 16.8862 24.7997C19.7639 30.7682 19.0151 37.039 15.0404 38.8899C11.0658 40.7409 5.48321 37.4167 2.49964 31.486C-0.48393 25.5552 0.335099 19.2467 4.20392 17.4335ZM68.353 17.4335C72.3246 19.2467 73.5013 25.5552 70.854 31.486C68.2068 37.4167 62.8127 40.7409 58.7331 38.8899C54.6535 37.039 53.5491 30.7682 56.0884 24.7997C58.8091 18.9445 64.2377 15.5825 68.353 17.4335ZM63.5558 58.1554C63.7991 61.7063 61.3445 65.6349 58.3214 67.1082C52.0299 70.2058 44.2925 63.7839 37.2005 63.7839C30.1084 63.7839 22.6714 70.4702 16.3037 67.1082C12.6874 65.2572 10.0891 60.3464 10.4368 56.2666C10.9187 50.6381 17.2123 47.6161 20.8732 43.4985C25.7472 38.1722 29.0273 28.1617 36.1906 28.1617C43.3183 28.1617 47.3754 38.0211 52.3419 43.4985C56.4284 48.1071 63.1318 51.998 63.5558 58.1554Z" fill="#EBE6E1"/>
</svg>
